<?xml version="1.0" encoding="UTF-8" standalone="no"?>
<svg
   xmlns:dc="http://purl.org/dc/elements/1.1/"
   xmlns:cc="http://creativecommons.org/ns#"
   xmlns:rdf="http://www.w3.org/1999/02/22-rdf-syntax-ns#"
   xmlns:svg="http://www.w3.org/2000/svg"
   xmlns="http://www.w3.org/2000/svg"
   viewBox="0 0 587.66669 583.35999"
   height="583.35999"
   width="587.66669"
   xml:space="preserve"
   id="svg2"
   version="1.1"><metadata
     id="metadata8"><rdf:RDF><cc:Work
         rdf:about=""><dc:format>image/svg+xml</dc:format><dc:type
           rdf:resource="http://purl.org/dc/dcmitype/StillImage" /></cc:Work></rdf:RDF></metadata><defs
     id="defs6" /><g
     transform="matrix(1.3333333,0,0,-1.3333333,0,583.36)"
     id="g10"><g
       transform="scale(0.1)"
       id="g12"><path
         id="path14"
         style="fill:#f3f2f1;fill-opacity:1;fill-rule:nonzero;stroke:none"
         d="m 645.48,337.211 c 860.62,-449.602 2255.98,-449.621 3116.59,-0.02 860.64,449.618 860.64,1178.559 0,1628.149 -860.62,449.61 -2255.98,449.61 -3116.605,0.02 -860.621,-449.6 -860.621,-1178.551 0.015,-1628.149" /><path
         id="path16"
         style="fill:#dadbd8;fill-opacity:1;fill-rule:nonzero;stroke:none"
         d="m 3268.2,757.43 c -159.7,-92.2 -418.62,-92.2 -578.31,0 -159.7,92.199 -159.7,241.679 0,333.88 159.69,92.2 418.61,92.2 578.31,0 159.69,-92.201 159.69,-241.689 0,-333.88" /><path
         id="path18"
         style="fill:#dadbd8;fill-opacity:1;fill-rule:nonzero;stroke:none"
         d="m 3981.96,1156.93 c -141.25,-81.54 -370.25,-81.54 -511.5,0 -141.24,81.55 -141.24,213.76 0,295.31 141.24,81.54 370.25,81.54 511.49,0 141.25,-81.55 141.25,-213.76 0.01,-295.31" /><path
         id="path20"
         style="fill:#e7e8e5;fill-opacity:1;fill-rule:nonzero;stroke:none"
         d="m 3404.98,3984.41 63.94,-36.92 c -0.32,2.86 -0.55,5.69 -0.55,8.47 v 18.52 c 0,32.96 23.15,46.32 51.69,29.84 11.57,-6.67 22.2,-17.25 30.81,-29.62 4.68,41.45 37.2,56.89 76.69,34.09 42.72,-24.66 77.34,-84.63 77.34,-133.95 v -27.71 c 0,-12.77 -2.37,-23.53 -6.55,-32.1 l 53.11,-30.67 c 15.84,-9.14 28.67,-31.37 28.67,-49.66 0,-18.28 -12.83,-25.69 -28.67,-16.55 l -346.48,200.05 c -15.83,9.14 -28.68,31.37 -28.68,49.66 0,18.28 12.85,25.69 28.68,16.55" /><path
         id="path22"
         style="fill:#e7e8e5;fill-opacity:1;fill-rule:nonzero;stroke:none"
         d="m 3131.35,3798.11 48.25,-27.86 c -0.23,2.15 -0.4,4.29 -0.4,6.39 v 13.97 c 0,24.88 17.46,34.96 39.01,22.53 8.73,-5.04 16.76,-13.02 23.25,-22.36 3.53,31.29 28.08,42.93 57.88,25.72 32.24,-18.61 58.36,-63.86 58.36,-101.08 v -20.91 c 0,-9.65 -1.78,-17.76 -4.94,-24.23 l 40.09,-23.15 c 11.95,-6.9 21.64,-23.67 21.64,-37.47 0,-13.8 -9.69,-19.39 -21.64,-12.5 l -261.5,150.98 c -11.95,6.9 -21.64,23.68 -21.64,37.47 0,13.8 9.69,19.4 21.64,12.5" /><path
         id="path24"
         style="fill:#33535f;fill-opacity:1;fill-rule:nonzero;stroke:none"
         d="m 468.988,815 c -6.371,-3.449 -124.121,-36.871 -167.738,20.742 -43.617,57.598 28.754,147.418 -12.164,180.508 -40.918,33.11 -155.574,-0.19 -183.18,69.54 -27.6013,69.73 54.215,99.61 8.239,169.78 -28.9653,44.2 -110.05906,68.64 -106.33641,109.81 5.43751,60.17 116.17141,76.39 212.95741,11.93 96.793,-64.48 141.832,-11.67 172.543,-7.34 30.714,4.33 96.91,-5.21 94.789,-113.02 C 485.977,1149.15 468.988,815 468.988,815" /><path
         id="path26"
         style="fill:#ffffff;fill-opacity:1;fill-rule:nonzero;stroke:none"
         d="m 476.766,968.32 c -3.078,0 -5.805,2.231 -6.321,5.371 -33.703,204.579 -271.511,371.079 -395.1559,406.809 -3.4102,0.98 -5.3789,4.53 -4.3868,7.94 0.9766,3.4 4.5391,5.35 7.9415,4.38 126.4492,-36.54 369.6762,-207.14 404.2652,-417.039 0.575,-3.5 -1.796,-6.801 -5.293,-7.383 l -1.05,-0.078" /><path
         id="path28"
         style="fill:#ffffff;fill-opacity:1;fill-rule:nonzero;stroke:none"
         d="m 196.391,1139.55 c -2.192,0 -4.321,1.12 -5.524,3.13 -1.804,3.05 -0.808,6.98 2.238,8.79 3.852,2.29 95.34,55.78 185.497,30.76 3.414,-0.95 5.418,-4.48 4.464,-7.89 -0.953,-3.42 -4.449,-5.46 -7.894,-4.47 -84.813,23.54 -174.621,-28.9 -175.516,-29.43 -1.027,-0.61 -2.152,-0.89 -3.265,-0.89" /><path
         id="path30"
         style="fill:#26b6a6;fill-opacity:1;fill-rule:nonzero;stroke:none"
         d="m 3915.12,1358.19 -31.15,14.43 c 0,0 -10.18,111.83 0.47,186.53 19.81,139.1 117.16,259.01 203.58,273.1 111.47,18.16 91.66,-84.42 27.94,-128.63 -101.45,-70.38 -180.85,-178.11 -200.84,-345.43" /><path
         id="path32"
         style="fill:#1db3a0;fill-opacity:1;fill-rule:nonzero;stroke:none"
         d="m 3915.12,1358.19 -31.15,14.43 c 0,0 -4.38,48.16 -4.39,102.39 0,28.4 1.2,58.46 4.86,84.14 19.81,139.1 117.16,259.01 203.58,273.1 8.91,1.45 16.99,2.13 24.26,2.13 39.27,0 55.41,-19.79 55.45,-45.01 0.04,-28.59 -20.62,-64.14 -51.77,-85.75 -101.45,-70.38 -180.85,-178.11 -200.84,-345.43" /><path
         id="path34"
         style="fill:#ffffff;fill-opacity:1;fill-rule:nonzero;stroke:none"
         d="m 3903.37,1402.99 0.56,0.08 c 2.95,0.56 4.88,3.4 4.33,6.35 -21.59,114.28 72.54,326.19 198.38,386.32 2.7,1.3 3.84,4.54 2.55,7.25 -1.29,2.7 -4.51,3.87 -7.25,2.56 -129.64,-61.96 -226.62,-280.35 -204.37,-398.15 0.52,-2.77 3.05,-4.65 5.8,-4.41" /><path
         id="path36"
         style="fill:#26b6a6;fill-opacity:1;fill-rule:nonzero;stroke:none"
         d="m 3883.97,1372.62 c -2.28,16.53 -3.29,40.77 -3.6,46.73 -1.12,20.98 1.63,42.27 9.06,61.98 9.75,25.85 27.81,48.84 51.71,62.71 12.97,7.54 28.17,12.96 36.62,25.36 7.26,10.66 7.97,24.28 9.54,37.08 2.57,20.9 9.08,43.01 25.84,55.76 16.66,12.68 39.47,13.13 60.3,10.92 30.01,-3.17 58.08,-7.22 86.09,6.53 22.73,11.15 45.25,22.95 69.2,31.17 29.92,10.29 97.11,25 111.26,-17.09 3.82,-11.41 0.41,-24.25 -6.16,-34.34 -6.56,-10.08 -15.95,-17.94 -25.21,-25.63 -15.63,-13 -31.26,-26 -46.9,-39 -5.31,-4.41 -10.73,-8.96 -14.23,-14.92 -9.12,-15.57 -2.65,-35.31 -4.67,-53.24 -2.04,-18.2 -13.41,-34.73 -28.71,-44.78 -15.32,-10.05 -34.2,-13.93 -52.47,-12.68 -24.49,1.67 -64.46,20.48 -79.44,-8.44 -4.9,-9.48 -5.85,-20.42 -7.23,-31 -1.38,-10.59 -3.49,-21.6 -10.14,-29.94 -9.77,-12.24 -26.7,-15.74 -42.28,-17.34 -21.73,-2.22 -44.13,-2.42 -64.48,-10.37 -8.4,-3.28 -13.69,-14.03 -18.59,-21.12 -15.31,5.67 -32.11,11.83 -55.51,21.65" /><path
         id="path38"
         style="fill:#ffffff;fill-opacity:1;fill-rule:nonzero;stroke:none"
         d="m 3897.88,1381.18 -2.33,0.34 c -2.58,1.04 -3.84,3.98 -2.79,6.58 63.03,156.48 264.04,268.57 383.78,305.74 2.73,0.83 5.5,-0.66 6.32,-3.32 0.82,-2.66 -0.67,-5.5 -3.32,-6.32 -117.89,-36.6 -315.7,-146.66 -377.41,-299.88 -0.74,-1.83 -2.42,-2.99 -4.25,-3.14" /><path
         id="path40"
         style="fill:#26b6a6;fill-opacity:1;fill-rule:nonzero;stroke:none"
         d="m 2564.9,1558.16 0.97,0.47 -0.97,-0.47 m -92.34,102.6 c 0,-35.74 25.12,-79.2 56.09,-97.06 12,-6.97 23.11,-8.97 32.21,-6.83 -1.79,-1.93 -3.86,-3.52 -6.07,-4.76 l 13.46,7.66 0.76,0.48 1.99,1.38 2.49,2.13 1.45,1.52 0.27,0.28 1.32,1.66 c 1.85,2.41 3.38,5.17 4.62,8.34 l 0.96,2.69 0.41,1.38 0.63,2.48 c 1.03,4.21 1.51,8.84 1.51,13.94 0,35.73 -25.1,79.19 -56.01,97.06 -9.04,5.24 -17.52,7.66 -25.11,7.66 h -0.21 c -1.17,0 -2.34,-0.07 -3.44,-0.21 l -3.24,-0.56 -1.94,-0.55 -1.17,-0.34 -2.28,-0.96 -0.48,-0.22 -2.14,-1.1 -11.72,-6.69 c 1.85,0.97 3.92,1.73 6.06,2.14 -6.55,-6.83 -10.42,-17.52 -10.42,-31.52" /><path
         id="path42"
         style="fill:#e7e8e5;fill-opacity:1;fill-rule:nonzero;stroke:none"
         d="m 1308.48,1015.62 79.05,-137.421 13.38,7.731 1153.88,666.18 c 2.21,1.24 4.28,2.83 6.07,4.76 6.49,6.83 10.36,17.52 10.36,31.52 0,35.74 -25.12,79.19 -56.09,97.06 -8.96,5.24 -17.52,7.66 -25.04,7.66 -2.49,0 -4.83,-0.28 -7.11,-0.83 -2.14,-0.41 -4.21,-1.17 -6.06,-2.14 l -0.97,-0.48 -0.35,-0.21 -0.14,-0.07 -1166.98,-673.76" /><path
         id="path44"
         style="fill:#26b6a6;fill-opacity:1;fill-rule:nonzero;stroke:none"
         d="m 1348.11,1011.7 c -30.95,17.87 -56.04,3.38 -56.04,-32.348 0,-35.75 25.09,-79.204 56.04,-97.071 30.95,-17.883 56.04,-3.39 56.04,32.348 0,35.742 -25.09,79.203 -56.04,97.071" /><path
         id="path46"
         style="fill:#dadbd8;fill-opacity:1;fill-rule:nonzero;stroke:none"
         d="m 1227.63,928.422 1.38,1.59 71.53,78.638 0.14,0.21 0.55,0.59 1.31,1.42 0.76,0.81 0.03,-0.05 c 10.23,9.81 26.45,10.65 44.79,0.07 30.95,-17.868 56.03,-61.329 56.03,-97.071 0,-20.738 -8.48,-34.25 -21.62,-38.508 l 0.03,-0.062 -0.86,-0.18 c -1.3,-0.379 -2.66,-0.668 -4.05,-0.859 l -0.88,-0.2 -0.28,-0.058 -103.68,-22.633 c -5.17,-1.168 -11.38,0.07 -18.07,3.93 -17.73,10.211 -32.08,35.043 -32.08,55.461 0,7.32 1.79,12.972 4.97,16.902" /><path
         id="path48"
         style="fill:#33535f;fill-opacity:1;fill-rule:nonzero;stroke:none"
         d="m 2143.73,1438.77 0.34,0.21 1.87,1.1 c 3.45,1.52 8,1.03 13.03,-1.86 10.97,-6.35 19.94,-21.87 19.94,-34.56 0,-5.59 -1.72,-9.73 -4.62,-12 l -0.07,-0.07 -2.41,-1.38 -851.75,-491.722 -56.01,32.352 879.68,507.93" /><path
         id="path50"
         style="fill:#273e47;fill-opacity:1;fill-rule:nonzero;stroke:none"
         d="m 1399.15,944.148 -79.09,-45.66 -56.01,32.352 107.07,61.832 c 12.42,-13.652 22.42,-30.953 28.03,-48.524" /><path
         id="path52"
         style="fill:#26b6a6;fill-opacity:1;fill-rule:nonzero;stroke:none"
         d="m 1199.44,891.039 v 0.012 l -0.07,0.058 64.88,71.34 1.74,1.922 c 7.2,7.199 18.81,7.82 31.97,0.25 21.86,-12.601 39.61,-43.34 39.61,-68.601 0,-14.59 -5.89,-24.149 -15.08,-27.258 l -0.62,-0.192 -2.61,-0.55 -95.11,-20.739 -0.04,0.039 c -2.91,-0.64 -6.43,0.012 -10.23,2.211 -9.96,5.739 -18.03,19.719 -18.03,31.219 0,4.648 1.36,8.109 3.59,10.289" /><path
         id="path54"
         style="fill:#1db3a0;fill-opacity:1;fill-rule:nonzero;stroke:none"
         d="m 1224.15,847.281 -0.02,0.02 v 0 l 0.02,-0.02 m 0,0 48.05,10.489 c 7.58,1.621 12.54,8.761 12.54,20.179 0,18.383 -12.91,40.789 -28.81,49.981 -4.6,2.672 -8.96,3.929 -12.82,3.929 -4.06,0 -7.57,-1.39 -10.27,-3.988 l -1.31,-1.43 -32.16,-35.332 64.88,71.34 1.74,1.922 c 3.71,3.707 8.58,5.668 14.24,5.668 5.33,0 11.35,-1.738 17.73,-5.418 21.86,-12.601 39.61,-43.34 39.61,-68.601 0,-14.59 -5.89,-24.149 -15.08,-27.258 l -0.62,-0.192 -2.61,-0.55 -61.69,-13.45 -33.42,-7.289 m -9.15,1.641 c -0.37,0.18 -0.74,0.387 -1.12,0.609 0.38,-0.222 0.75,-0.429 1.12,-0.609" /><path
         id="path56"
         style="fill:#26b6a6;fill-opacity:1;fill-rule:nonzero;stroke:none"
         d="m 1195.83,880.742 c 0,-11.48 8.08,-25.453 18.07,-31.222 3.79,-2.18 7.33,-2.86 10.19,-2.18 l 0.06,-0.059 48.05,10.489 c 7.58,1.621 12.54,8.761 12.54,20.179 0,18.383 -12.91,40.789 -28.81,49.981 -9.43,5.461 -17.81,5.019 -23.09,-0.059 l -1.31,-1.43 -32.16,-35.332 0.07,-0.058 c -2.24,-2.172 -3.61,-5.653 -3.61,-10.309" /><path
         id="path58"
         style="fill:#d5d7d4;fill-opacity:1;fill-rule:nonzero;stroke:none"
         d="m 1221.93,847.059 c -2.11,0 -4.45,0.601 -6.93,1.863 2.47,-1.25 4.79,-1.84 6.89,-1.84 0.77,0 1.51,0.078 2.22,0.238 l 0.02,-0.019 c -0.7,-0.16 -1.44,-0.242 -2.2,-0.242" /><path
         id="path60"
         style="fill:#14b09a;fill-opacity:1;fill-rule:nonzero;stroke:none"
         d="m 1221.89,847.082 c -2.1,0 -4.42,0.59 -6.89,1.84 -0.37,0.18 -0.74,0.387 -1.12,0.609 v 0 c -3.38,1.949 -6.54,4.84 -9.24,8.27 2.7,-3.43 5.87,-6.332 9.26,-8.281 2.85,-1.641 5.56,-2.43 7.95,-2.43 0.78,0 1.53,0.082 2.24,0.25 l 0.04,-0.039 v 0 l -0.02,0.019 c -0.71,-0.16 -1.45,-0.238 -2.22,-0.238" /><path
         id="path62"
         style="fill:#d5d7d4;fill-opacity:1;fill-rule:nonzero;stroke:none"
         d="m 1196.24,884.84 c 0.54,2.672 1.63,4.769 3.15,6.262 l 0.05,-0.051 c -1.52,-1.481 -2.64,-3.563 -3.2,-6.211" /><path
         id="path64"
         style="fill:#1db3a0;fill-opacity:1;fill-rule:nonzero;stroke:none"
         d="m 1221.85,847.09 c -2.39,0 -5.1,0.789 -7.95,2.43 -3.39,1.949 -6.56,4.851 -9.26,8.281 v 0 c -5.27,6.668 -8.79,15.347 -8.79,22.949 0,1.48 0.13,2.852 0.39,4.09 0.56,2.648 1.68,4.73 3.2,6.211 l -0.05,0.051 c 1.68,1.648 3.89,2.519 6.43,2.519 2.43,0 5.16,-0.789 8.06,-2.461 9.95,-5.75 18.02,-19.73 18.02,-31.23 0,-7.098 -3.07,-11.59 -7.77,-12.629 l -0.04,0.039 c -0.71,-0.168 -1.46,-0.25 -2.24,-0.25" /><path
         id="path66"
         style="fill:#fafaf9;fill-opacity:1;fill-rule:nonzero;stroke:none"
         d="m 2355.85,1561.28 c 3.59,2.14 8.55,1.8 14.08,-1.38 10.96,-6.34 19.86,-21.73 19.79,-34.35 0,-6.41 -2.21,-10.9 -5.87,-12.9 l -209.56,-120.99 c 2.9,2.27 4.62,6.41 4.62,12 0,12.69 -8.97,28.21 -19.94,34.56 -5.03,2.89 -9.59,3.38 -13.03,1.86 l 209.91,121.2" /><path
         id="path68"
         style="fill:#f3f2f1;fill-opacity:1;fill-rule:nonzero;stroke:none"
         d="m 2350.05,1548.45 c 0,-12.62 8.9,-28.01 19.88,-34.35 5.45,-3.1 10.34,-3.45 13.85,-1.38 3.67,2 5.94,6.42 5.94,12.83 0.07,12.62 -8.83,28.01 -19.79,34.35 -5.53,3.18 -10.49,3.52 -14.08,1.38 -3.59,-2.07 -5.8,-6.55 -5.8,-12.83" /><path
         id="path70"
         style="fill:#26b6a6;fill-opacity:1;fill-rule:nonzero;stroke:none"
         d="m 2394.41,1633.3 -0.03,0.05 0.63,0.37 0.88,0.51 82.69,47.68 1.92,1.11 0.46,0.27 0.02,-0.04 c 9,4.4 20.97,3.39 34.18,-4.24 27.85,-16.08 50.43,-55.19 50.43,-87.36 0,-16.17 -5.71,-27.49 -14.93,-32.73 v 0 l -83.68,-48.31 -0.45,-0.26 -0.5,-0.28 -0.02,0.04 c -9.07,-4.83 -21.36,-3.94 -34.91,3.88 -27.86,16.09 -50.44,55.2 -50.44,87.37 0,15.45 5.24,26.43 13.75,31.94" /><path
         id="path72"
         style="fill:#25b5a2;fill-opacity:1;fill-rule:nonzero;stroke:none"
         d="m 2467.6,1510.97 c 8.64,5.47 13.94,16.56 13.94,32.15 0,32.16 -22.59,71.28 -50.44,87.36 -8.1,4.67 -15.75,6.88 -22.53,6.88 -4.36,0 -8.37,-0.91 -11.9,-2.68 l 81.91,47.23 1.92,1.11 0.46,0.27 0.02,-0.04 c 3.51,1.71 7.47,2.6 11.77,2.6 6.75,0 14.35,-2.18 22.41,-6.84 27.85,-16.08 50.43,-55.19 50.43,-87.36 0,-16.17 -5.71,-27.49 -14.93,-32.73 v 0 l -83.06,-47.95" /><path
         id="path74"
         style="fill:#25b5a2;fill-opacity:1;fill-rule:nonzero;stroke:none"
         d="m 2433.36,1512.75 c -0.75,0.39 -1.5,0.81 -2.26,1.24 0.76,-0.43 1.51,-0.85 2.26,-1.24" /><path
         id="path76"
         style="fill:#25b5a2;fill-opacity:1;fill-rule:nonzero;stroke:none"
         d="m 2380.66,1601.52 c 0,0.02 0,0.03 0,0.05 0,-0.02 0,-0.04 0,-0.05 m 0,0.18 c 0,0.01 0,0.02 0,0.03 0,-0.01 0,-0.02 0,-0.03 m 0,0.38 v 0 0" /><path
         id="path78"
         style="fill:#cccdcb;fill-opacity:1;fill-rule:nonzero;stroke:none"
         d="m 2453.62,1507.11 c -6.14,0 -13,1.82 -20.26,5.64 7.23,-3.81 14.06,-5.61 20.18,-5.61 4.6,0 8.8,1.01 12.47,2.97 l 0.02,-0.04 0.5,0.28 0.45,0.26 0.62,0.36 c -4.01,-2.54 -8.73,-3.86 -13.98,-3.86 m -72.96,94.25 c 0,0.05 0,0.11 0,0.16 0,-0.05 0,-0.11 0,-0.16" /><path
         id="path80"
         style="fill:#cccdcb;fill-opacity:1;fill-rule:nonzero;stroke:none"
         d="m 2380.66,1601.57 c 0,0.04 0,0.08 0,0.13 0,-0.05 0,-0.09 0,-0.13" /><path
         id="path82"
         style="fill:#cccdcb;fill-opacity:1;fill-rule:nonzero;stroke:none"
         d="m 2380.66,1601.73 c 0,0.12 0,0.23 0,0.35 0,-0.12 0,-0.23 0,-0.35" /><path
         id="path84"
         style="fill:#cccdcb;fill-opacity:1;fill-rule:nonzero;stroke:none"
         d="m 2380.66,1602.08 c 0.18,16.41 6.3,27.73 16.01,32.6 l -0.78,-0.45 -0.88,-0.51 -0.63,-0.37 0.03,-0.05 c -8.37,-5.43 -13.59,-16.15 -13.75,-31.22" /><path
         id="path86"
         style="fill:#19b19d;fill-opacity:1;fill-rule:nonzero;stroke:none"
         d="m 2453.54,1507.14 c -6.12,0 -12.95,1.8 -20.18,5.61 -0.75,0.39 -1.5,0.81 -2.26,1.24 v 0 c -27.86,16.09 -50.44,55.2 -50.44,87.37 v 0 c 0,0.05 0,0.11 0,0.16 0,0.01 0,0.03 0,0.05 0,0.04 0,0.08 0,0.13 0,0.01 0,0.02 0,0.03 0,0.12 0,0.23 0,0.35 v 0 c 0.16,15.07 5.38,25.79 13.75,31.22 v 0 0 l -0.03,0.05 0.63,0.37 0.88,0.51 0.78,0.45 c 3.53,1.77 7.54,2.68 11.9,2.68 6.78,0 14.43,-2.21 22.53,-6.88 27.85,-16.08 50.44,-55.2 50.44,-87.36 0,-15.59 -5.3,-26.68 -13.94,-32.15 l -0.62,-0.36 -0.45,-0.26 -0.5,-0.28 -0.02,0.04 c -3.67,-1.96 -7.87,-2.97 -12.47,-2.97" /><path
         id="path88"
         style="fill:#33535f;fill-opacity:1;fill-rule:nonzero;stroke:none"
         d="m 1172.94,861.02 v 0 l 34.22,20.531 0.01,-0.031 c 1.69,1.089 4.06,1.019 6.71,-0.5 5.1,-2.95 9.24,-10.122 9.24,-16.02 0,-2.941 -1.04,-5.012 -2.71,-5.98 l -34.09,-20.622 c -1.88,-1.027 -4.03,-1.617 -6.33,-1.617 -7.26,0 -13.14,5.879 -13.14,13.141 0,4.668 2.43,8.769 6.09,11.098" /><path
         id="path90"
         style="fill:#17282f;fill-opacity:1;fill-rule:nonzero;stroke:none"
         d="m 1170.96,859.449 0.07,0.071 1.82,1.441 0.13,0.07 c 1.59,0.617 3.67,0.27 5.95,-1.031 5.1,-2.969 9.24,-10.078 9.24,-16.012 0,-2.898 -0.97,-4.898 -2.62,-5.859 l -0.69,-0.348 -0.68,-0.32 c -1.31,-0.551 -2.7,-0.711 -4.22,-0.711 -7.24,0 -13.1,5.93 -13.1,13.172 0,3.797 1.55,7.18 4.1,9.527" /><path
         id="path92"
         style="fill:#26b6a6;fill-opacity:1;fill-rule:nonzero;stroke:none"
         d="m 510.828,769.641 -34.894,20.148 c -11.004,6.34 -19.914,21.793 -19.914,34.481 L 456,3409.89 c 0,12.7 8.918,28.14 19.918,34.49 l 1604.062,926.11 c 11,6.35 28.83,6.35 39.83,0 l 34.91,-20.16 c 10.99,-6.35 19.91,-21.79 19.91,-34.49 V 1730.23 c 0,-12.7 -8.92,-28.14 -19.91,-34.49 L 550.652,769.629 c -10.996,-6.34 -28.828,-6.34 -39.824,0.012" /><path
         id="path94"
         style="fill:#ffffff;fill-opacity:1;fill-rule:nonzero;stroke:none"
         d="m 461.848,3429.54 -0.051,0.03 c 3.68,6.26 8.555,11.59 14.07,14.81 l 728.303,420.48 c 0,0 -0.01,-0.02 -0.01,-0.03 L 475.918,3444.38 c -5.492,-3.17 -10.469,-8.61 -14.07,-14.84 m 853.572,499.53 c 0.01,0.01 0.01,0.02 0.02,0.04 l 56.57,32.66 c 0,-0.01 0.01,-0.02 0.01,-0.03 l -56.6,-32.67 m 132.85,76.7 c 0,0.01 0,0.01 -0.01,0.02 l 0.95,0.55 c -0.03,-0.03 -0.06,-0.06 -0.09,-0.08 l -0.85,-0.49 m 45.14,26.09 586.53,338.63 c 5.52,3.17 12.74,4.76 19.95,4.76 v 0 c -7.21,0 -14.41,-1.59 -19.91,-4.76 L 1493.5,4031.88 c -0.03,-0.01 -0.06,-0.02 -0.09,-0.02 m 666.66,314.54 c -1.7,1.53 -3.5,2.86 -5.35,3.93 l -13.01,7.51 13.01,-7.49 c 1.85,-1.07 3.64,-2.41 5.35,-3.95" /><path
         id="path96"
         style="fill:#5cc8bc;fill-opacity:1;fill-rule:nonzero;stroke:none"
         d="m 536.578,3386.44 -74.73,43.1 c 3.601,6.23 8.578,11.67 14.07,14.84 l 728.242,420.45 c -1.02,-2.84 -2.07,-5.62 -3.15,-8.37 -0.01,-0.01 -0.02,-0.02 -0.02,-0.04 -0.02,-0.06 -0.04,-0.11 -0.07,-0.17 -0.01,-0.03 -0.03,-0.07 -0.04,-0.11 -0.02,-0.03 -0.03,-0.07 -0.05,-0.11 -0.03,-0.08 -0.06,-0.16 -0.09,-0.24 v 0 0 c -3.83,-9.58 -7.85,-18.27 -12.01,-26.27 l 0.01,-0.01 c -28.09,-54.04 -62.41,-75.15 -82.28,-102.95 v 0 c -0.04,-0.06 -0.09,-0.12 -0.13,-0.18 0,0 -0.01,0 -0.01,-0.01 -1.74,-2.41 -3.36,-4.78 -4.88,-7.13 l -550.792,-318 c -5.519,-3.12 -10.394,-8.55 -14.07,-14.8 m 756.612,443.51 c -0.44,4.25 -0.66,8.73 -0.66,13.43 0,29.41 8.95,60.76 22.89,85.69 l 56.6,32.67 c 2.02,-8.08 3.1,-17.35 3.1,-27.68 0,-11.47 -1.35,-23.23 -3.83,-34.79 -4.74,-10.35 -8.95,-20.89 -12.54,-31.47 l -65.56,-37.85 m 193.52,135.49 c 6.26,8.81 10.84,14.12 12.64,14.12 0.12,0 0.22,-0.02 0.31,-0.06 4.78,-2.19 8.69,-5.96 11.58,-11.12 -4.36,-0.32 -9.04,-0.99 -13.93,-1.65 -3.44,-0.47 -6.99,-0.94 -10.6,-1.29 m 83.16,24.25 c -0.63,10.15 -0.92,16.84 -0.95,17.77 v 0.09 l -1.65,0.92 -36.15,20.79 c -5.98,3.49 -12.97,5.24 -20.61,5.24 -5.3,0 -10.99,-0.86 -17.01,-2.62 l 586.48,338.61 c 5.5,3.17 12.7,4.76 19.91,4.76 7.21,0 14.4,-1.59 19.88,-4.76 l 21.94,-12.65 13.01,-7.51 c 1.85,-1.07 3.65,-2.4 5.35,-3.93 7.52,-6.79 13.28,-17.58 14.33,-27.32 -0.94,7.01 -5.12,11 -10.83,11 -2.68,0 -5.68,-0.88 -8.85,-2.72 l -584.85,-337.67 m -121.53,15.91 c -0.03,0.06 -0.05,0.11 -0.07,0.17 l 0.85,0.49 c -0.27,-0.22 -0.52,-0.44 -0.78,-0.66" /><path
         id="path98"
         style="fill:#d2d4d1;fill-opacity:1;fill-rule:nonzero;stroke:none"
         d="m 456,1852.76 v 1557.13 l 0.012,-1557.13 H 456 m 0.012,1557.97 c 0.004,0.02 0.004,0.04 0.004,0.06 0,-0.02 0,-0.04 -0.004,-0.06 m 0.004,0.07 c 0.199,6.11 2.363,12.82 5.781,18.77 l 0.051,-0.03 c -3.442,-5.95 -5.629,-12.62 -5.832,-18.74" /><path
         id="path100"
         style="fill:#c7c9c7;fill-opacity:1;fill-rule:nonzero;stroke:none"
         d="m 525.684,765.141 c -1.371,0.14 -2.731,0.339 -4.059,0.609 1.328,-0.27 2.688,-0.469 4.059,-0.609 m 13.746,0.519 h -0.016 c 0.039,0.012 0.078,0.012 0.117,0.02 -0.035,-0.008 -0.066,-0.008 -0.101,-0.02 m -27.383,3.32 c -0.418,0.211 -0.824,0.418 -1.227,0.629 l -34.953,20.153 c -7.445,4.379 -13.957,12.886 -17.359,21.879 0.008,0 0.012,0 0.019,0 3.403,-9.012 9.918,-17.539 17.407,-21.852 l 34.894,-20.148 c 0.399,-0.231 0.805,-0.45 1.219,-0.661 m -56.031,584.12 c -0.004,0 -0.012,0.01 -0.016,0.01 v 499.65 h 0.012 l 0.004,-499.66" /><path
         id="path102"
         style="fill:#29444e;fill-opacity:1;fill-rule:nonzero;stroke:none"
         d="M 458.508,811.641 C 456.91,815.859 456,820.191 456,824.25 v 205.46 c 0.008,-0.03 0.012,-0.03 0.02,-0.05 V 824.27 c 0,-4.051 0.91,-8.391 2.507,-12.629 -0.007,0 -0.011,0 -0.019,0 m -2.488,252.399 c -0.008,0.02 -0.012,0.03 -0.02,0.04 v 289.03 c 0.004,0 0.012,-0.01 0.016,-0.01 l 0.004,-289.06" /><path
         id="path104"
         style="fill:#d2d4d1;fill-opacity:1;fill-rule:nonzero;stroke:none"
         d="m 456.02,1029.66 c -0.008,0.02 -0.012,0.02 -0.02,0.05 v 34.37 c 0.008,-0.01 0.012,-0.02 0.02,-0.04 v -34.38" /><path
         id="path106"
         style="fill:#19b19d;fill-opacity:1;fill-rule:nonzero;stroke:none"
         d="m 530.508,764.891 c -1.617,0 -3.231,0.078 -4.824,0.25 -1.371,0.14 -2.731,0.339 -4.059,0.609 -2.227,0.441 -4.375,1.051 -6.391,1.84 -1.109,0.39 -2.171,0.879 -3.187,1.39 -0.414,0.211 -0.82,0.43 -1.219,0.661 l -34.894,20.148 c -7.489,4.313 -14.004,12.84 -17.407,21.852 -1.597,4.238 -2.507,8.578 -2.507,12.629 v 205.39 34.38 l -0.004,289.06 -0.004,499.66 L 456,3409.89 c 0,0.28 0.004,0.56 0.012,0.84 0.004,0.02 0.004,0.04 0.004,0.06 0,0 0,0.01 0,0.01 0.203,6.12 2.39,12.79 5.832,18.74 l 74.73,-43.1 c -3.683,-6.26 -5.89,-13.34 -5.89,-19.69 V 781.109 c 0,-4.507 1.105,-8.089 3.039,-10.48 1.949,-2.399 4.703,-3.699 7.941,-3.699 0.875,0 1.785,0.101 2.727,0.289 0.785,0.16 1.57,0.383 2.355,0.679 l -0.793,-0.308 -2.023,-0.731 -0.829,-0.277 c -1.164,-0.363 -2.328,-0.633 -3.574,-0.902 -0.039,-0.008 -0.078,-0.008 -0.117,-0.02 h -0.449 c -2.754,-0.512 -5.61,-0.769 -8.457,-0.769 m 16.242,3.007 0.402,0.153 c -0.132,-0.051 -0.265,-0.102 -0.402,-0.153" /><path
         id="path108"
         style="fill:#33535f;fill-opacity:1;fill-rule:nonzero;stroke:none"
         d="m 1575.72,3794.07 c -8.73,-5.05 -15.82,1.75 -15.82,15.18 0,13.52 7.09,28.52 15.82,33.57 8.84,5.06 15.92,-1.75 15.92,-15.27 0,-13.42 -7.08,-28.42 -15.92,-33.48 m -223.23,-8.37 c -22.07,-12.78 -41.38,-5.52 -51.78,15.82 -26.02,-5.06 -45.43,20.15 -45.43,63.38 0,50.95 26.86,107.7 59.97,126.83 22.07,12.79 41.38,5.52 51.69,-15.82 26.12,5.15 45.43,-19.96 45.43,-63.37 0,-50.96 -26.76,-107.7 -59.88,-126.84 m -295.33,-291.1 c -8.74,-4.97 -15.91,1.75 -15.91,15.27 0,13.43 7.17,28.6 15.91,33.66 8.74,5.06 15.82,-1.84 15.82,-15.36 0,-13.43 -7.08,-28.51 -15.82,-33.57 m 616.43,399.82 c -0.92,0.55 -1.94,1.1 -2.95,1.75 l -33.11,19.04 c -7.72,4.87 -19.86,9.56 -38.63,13.7 -5.7,1.29 -10.85,2.76 -15.36,4.23 -5.61,1.93 -10.39,3.87 -14.62,5.98 l 2.48,3.03 v 0.1 l -37.44,21.61 v -0.09 c -2.93,1.66 -6.07,3.04 -9.83,3.95 -7.36,1.78 -16.63,0.4 -26.82,-0.99 -9.29,-1.27 -19.33,-2.53 -29.38,-1.4 -13.34,1.48 -26.67,7.27 -38.17,22.72 -12.79,17.2 -20.51,47.37 -31.83,72.3 l 9.84,14.53 c -1,0.64 -2.02,1.19 -3.12,1.75 l -34.31,19.87 c -5.52,3.21 -11.86,5.14 -19.13,5.14 -10.02,0 -21.8,-3.49 -35.96,-11.68 -82.14,-47.46 -84.9,-160.13 -114.51,-234.17 -29.62,-74.23 -71.47,-97.31 -94.28,-129.23 -22.99,-31.82 -24.37,-55.46 -74.87,-125.08 -50.492,-69.63 -52.52,-86.64 -52.52,-99.8 v -103.75 l 37.35,-21.52 672.25,388.23 -15.08,129.78" /><path
         id="path110"
         style="fill:#2d4853;fill-opacity:1;fill-rule:nonzero;stroke:none"
         d="m 1016.42,3376.41 -37.35,21.52 v 103.75 c 0,4.34 0.266,9.16 2.379,16.1 l 37.291,-21.53 c -2.11,-6.96 -2.32,-11.74 -2.32,-16.09 v -103.75" /><path
         id="path112"
         style="fill:#13a091;fill-opacity:1;fill-rule:nonzero;stroke:none"
         d="m 1060.59,3644.66 h -0.01 c 20.99,34.38 27.21,53.57 40.86,74.58 v 0 c -13.64,-21.01 -19.84,-40.18 -40.85,-74.58" /><path
         id="path114"
         style="fill:#3da195;fill-opacity:1;fill-rule:nonzero;stroke:none"
         d="m 1101.44,3719.24 c 1.52,2.35 3.14,4.72 4.88,7.13 -1.74,-2.42 -3.35,-4.78 -4.88,-7.13 v 0 m 4.89,7.14 c 0.04,0.06 0.09,0.12 0.13,0.18 -0.04,-0.06 -0.09,-0.12 -0.13,-0.18" /><path
         id="path116"
         style="fill:#2d4853;fill-opacity:1;fill-rule:nonzero;stroke:none"
         d="m 1097.88,3623.13 -37.29,21.53 c 21.01,34.4 27.21,53.57 40.85,74.58 1.53,2.35 3.14,4.71 4.88,7.13 0,0.01 0.01,0.01 0.01,0.01 0.04,0.06 0.09,0.12 0.13,0.18 v 0 l 0.01,0.01 37.08,-21.75 c -17.31,-24.03 -22.3,-43.46 -45.67,-81.69" /><path
         id="path118"
         style="fill:#3da195;fill-opacity:1;fill-rule:nonzero;stroke:none"
         d="m 1188.74,3829.51 -0.01,0.01 c 4.16,8 8.18,16.69 12.01,26.27 -3.82,-9.57 -7.84,-18.28 -12,-26.28 m 12,26.28 c 0.03,0.08 0.06,0.16 0.09,0.24 -0.03,-0.08 -0.06,-0.16 -0.09,-0.24 m 0.14,0.35 c 0.01,0.04 0.03,0.08 0.04,0.11 -0.01,-0.03 -0.03,-0.07 -0.04,-0.11 m 0.11,0.28 c 0,0.02 0.01,0.03 0.02,0.04 -0.01,-0.01 -0.02,-0.03 -0.02,-0.04" /><path
         id="path120"
         style="fill:#2d4853;fill-opacity:1;fill-rule:nonzero;stroke:none"
         d="m 1226,3808 -37.26,21.51 c 4.16,8 8.18,16.71 12,26.28 v 0 0 c 0.03,0.08 0.06,0.16 0.09,0.24 0.02,0.04 0.03,0.08 0.05,0.11 0.01,0.04 0.03,0.08 0.04,0.11 0.02,0.06 0.05,0.12 0.07,0.17 0,0.01 0.01,0.03 0.02,0.04 17.84,44.99 26.02,103.97 47.99,153.99 l 37.18,-21.45 c -22.09,-50.28 -30.17,-109.66 -48.19,-154.73 -3.82,-9.56 -7.84,-18.27 -11.99,-26.27" /><path
         id="path122"
         style="fill:#273e47;fill-opacity:1;fill-rule:nonzero;stroke:none"
         d="m 1613.07,3772.55 c -8.83,-5.06 -15.92,1.75 -15.92,15.18 0,13.52 7.09,28.51 15.92,33.57 8.74,5.06 15.82,-1.75 15.82,-15.27 0,-13.43 -7.08,-28.42 -15.82,-33.48 m -260.58,13.15 c -22.07,-12.78 -41.38,-5.52 -51.78,15.82 -5.24,10.67 -8.18,24.84 -8.18,41.86 0,50.94 26.86,107.7 59.96,126.83 4.98,2.85 9.85,4.78 14.45,5.7 26.12,5.15 45.43,-19.96 45.43,-63.37 0,-50.96 -26.76,-107.7 -59.88,-126.84 m -258.08,-312.63 c -8.74,-5.05 -15.82,1.75 -15.82,15.27 0,13.43 7.08,28.61 15.82,33.67 8.83,5.06 15.82,-1.84 15.82,-15.37 0,-13.42 -6.99,-28.5 -15.82,-33.57 m 579.18,421.35 c -0.92,0.55 -1.94,1.1 -2.95,1.75 -7.72,3.96 -18.76,7.72 -34.49,11.22 -29.8,6.71 -42.49,17.2 -52.61,25.75 -4.14,3.5 -7.82,6.63 -12.14,9.01 -2.94,1.75 -6.16,3.13 -10.02,4.05 -7.32,1.76 -16.57,0.37 -26.74,-1.02 -21.31,-2.9 -46.67,-5.8 -66.71,20.15 l -0.92,1.2 c -20.7,27.87 -28.24,90.04 -59.24,108.35 -1,0.64 -2.02,1.19 -3.12,1.75 -12.78,5.97 -29.44,4.87 -52.16,-8.19 -82.13,-47.46 -84.89,-160.13 -114.5,-234.17 -29.62,-74.22 -71.47,-97.31 -94.28,-129.23 -22.99,-31.82 -24.28,-55.46 -74.87,-125.09 -50.49,-69.62 -52.42,-86.64 -52.42,-99.79 v -103.75 l 672.25,388.23 v 103.66 c 0,8.55 -0.82,17.66 -15.08,26.12" /><path
         id="path124"
         style="fill:#17282f;fill-opacity:1;fill-rule:nonzero;stroke:none"
         d="m 1412.37,3912.54 c 0,-50.96 -26.76,-107.7 -59.88,-126.84 -22.07,-12.78 -41.38,-5.52 -51.78,15.82 4.69,0.92 9.48,2.76 14.54,5.71 33.11,19.13 59.87,75.88 59.87,126.83 0,17.02 -2.94,31.19 -8.18,41.85 26.12,5.15 45.43,-19.96 45.43,-63.37" /><path
         id="path126"
         style="fill:#17282f;fill-opacity:1;fill-rule:nonzero;stroke:none"
         d="m 1094.44,3473.12 c -8.76,-5.06 -15.9,1.74 -15.9,15.2 0,13.48 7.14,28.6 15.9,33.66 8.76,5.05 15.84,-1.86 15.84,-15.34 0,-13.46 -7.08,-28.47 -15.84,-33.52" /><path
         id="path128"
         style="fill:#17282f;fill-opacity:1;fill-rule:nonzero;stroke:none"
         d="m 1613.03,3772.48 c -8.76,-5.05 -15.9,1.74 -15.9,15.22 0,13.47 7.14,28.59 15.9,33.65 8.75,5.05 15.83,-1.86 15.83,-15.33 0,-13.48 -7.08,-28.48 -15.83,-33.54" /><path
         id="path130"
         style="fill:#f3f2f1;fill-opacity:1;fill-rule:nonzero;stroke:none"
         d="m 654.723,3159.38 1395.837,805.88 c 6.6,3.81 17.3,3.81 23.9,0 l 13.46,-7.77 c 6.6,-3.81 11.95,-13.08 11.95,-20.69 V 1807.33 c 0,-7.62 -5.35,-16.89 -11.95,-20.69 L 692.109,980.75 c -6.597,-3.809 -17.296,-3.809 -23.894,0 l -13.492,7.801 c -6.602,3.801 -11.95,13.069 -11.95,20.689 v 2129.44 c 0,7.62 5.348,16.89 11.95,20.7" /><path
         id="path132"
         style="fill:#fafaf9;fill-opacity:1;fill-rule:nonzero;stroke:none"
         d="m 2099.44,3940.41 c -1.48,4.87 -6.07,6.44 -11.5,3.31 L 692.109,3137.82 c -3.316,-1.93 -6.347,-5.15 -8.461,-8.92 l -37.343,21.52 c 2.113,3.77 5.148,7.09 8.461,8.93 l 1395.834,805.9 c 6.53,3.86 17.29,3.86 23.82,0 l 13.52,-7.73 c 5.61,-3.32 10.3,-10.39 11.5,-17.11" /><path
         id="path134"
         style="fill:#dadbd8;fill-opacity:1;fill-rule:nonzero;stroke:none"
         d="m 689.258,979.5 c -1.383,-0.551 -2.852,-0.918 -4.418,-1.191 l -2.301,-0.278 c -2.387,-0.179 -4.871,-0.09 -7.262,0.278 -1.566,0.273 -3.035,0.64 -4.418,1.191 -0.918,0.371 -1.836,0.832 -2.668,1.289 l -13.425,7.731 c -6.621,3.859 -11.957,13.06 -11.957,20.69 v 2129.44 c 0,3.86 1.289,8.09 3.496,11.77 l 37.343,-21.52 c -2.121,-3.77 -3.496,-8 -3.496,-11.77 V 987.691 c 0,-6.531 3.864,-9.75 9.106,-8.191" /><path
         id="path136"
         style="fill:#33535f;fill-opacity:1;fill-rule:nonzero;stroke:none"
         d="m 1552.54,3899.02 c -8.64,-48.75 -43.78,-103.11 -78.73,-121.41 -24.09,-12.6 -41.66,-4.78 -47.55,17.39 -10.66,-3.32 -19.68,-1.94 -26.39,3.4 -11.23,8.83 91.42,184.96 99.79,181.1 7.45,-3.41 12.79,-10.67 15.45,-21.06 28.79,8.73 45.16,-15.64 37.43,-59.42 m 232.89,-235.37 -37.16,21.52 c -9.56,5.52 -22.16,5.62 -37.34,-1.1 -43.42,-19.13 -62.18,-27.78 -84.62,-37.16 -5.15,-2.11 -10.39,-4.23 -16.19,-6.53 -8.73,-3.49 -26.3,-0.55 -20.88,30.08 l 57.67,155.34 -0.83,0.47 -36.51,21.15 c -1.65,1.01 -3.68,1.74 -6.07,2.12 -1.2,0.18 -2.58,0.36 -4.05,0.36 -23.63,0.56 -30.35,152.87 -30.53,157.56 v 0.09 l -1.65,0.92 -36.15,20.79 c -5.98,3.49 -12.97,5.24 -20.61,5.24 -10.11,0 -21.61,-3.13 -34.21,-9.66 -56.75,-29.79 -114.05,-118.1 -128.03,-197.38 -8.83,-50.03 -59.14,-127.02 -88.21,-155.35 -29.16,-28.51 -31.09,-52.06 -31.09,-52.06 l -22.62,-128.21 -7.27,-41.02 c -5.34,-30.63 -36.7,-60.25 -36.7,-60.25 l -117.08,-87.74 c -73.308,-60.89 -93.999,-122.33 -108.073,-198.4 l -0.094,-0.55 c -0.461,-2.66 0.094,-4.5 1.285,-5.24 l 1.289,-0.1 v 0.1 h 0.184 l 14.992,8.55 805.527,464.58 c 3.22,1.66 6.53,6.8 7.36,11.22 l 0.18,0.37 v 0.27 c 4.6,27.78 18.03,79.75 18.03,79.75 l -0.55,0.27" /><path
         id="path138"
         style="fill:#86969a;fill-opacity:1;fill-rule:nonzero;stroke:none"
         d="m 937.27,3104.66 c 0.253,1.39 0.515,2.77 0.777,4.14 -0.262,-1.37 -0.52,-2.75 -0.777,-4.14 m 0.793,4.22 c 0,0.02 0.003,0.03 0.007,0.05 -0.004,-0.02 -0.007,-0.03 -0.007,-0.05" /><path
         id="path140"
         style="fill:#2d4853;fill-opacity:1;fill-rule:nonzero;stroke:none"
         d="m 939.707,3098.54 -1.289,0.1 c -0.91,0.56 -1.453,1.77 -1.445,3.51 0,0.53 0.05,1.11 0.16,1.73 l 0.094,0.55 c 0.015,0.08 0.027,0.16 0.043,0.23 0.257,1.39 0.515,2.77 0.777,4.14 0.004,0.03 0.008,0.06 0.016,0.08 0,0.02 0.003,0.03 0.007,0.05 10.039,52.8 23.871,98.56 57.008,142.14 l 58.672,-33.87 -67.398,-81.79 -46.293,-36.67 -0.168,-0.1 h -0.184 v -0.1" /><path
         id="path142"
         style="fill:#88999c;fill-opacity:1;fill-rule:nonzero;stroke:none"
         d="m 1195.23,3437.5 -0.04,0.02 c 1.67,4.21 3.02,8.51 3.81,12.84 -0.79,-4.34 -2.1,-8.65 -3.77,-12.86 m 3.78,12.93 c 0.01,0.03 0.02,0.07 0.02,0.11 -0.01,-0.04 -0.01,-0.08 -0.02,-0.11 m 0.04,0.2 c 0.01,0.07 0.02,0.13 0.03,0.19 -0.01,-0.06 -0.02,-0.12 -0.03,-0.19" /><path
         id="path144"
         style="fill:#2d4853;fill-opacity:1;fill-rule:nonzero;stroke:none"
         d="m 1277.92,3389.76 -82.69,47.74 c 1.67,4.21 2.98,8.52 3.77,12.86 0,0.03 0.01,0.05 0.01,0.07 0.01,0.03 0.01,0.07 0.02,0.11 0.01,0.03 0.01,0.06 0.02,0.09 0.01,0.07 0.02,0.13 0.03,0.19 v 0 l 7.27,41.02 22.62,128.21 c 0,0 1.01,11.66 11.7,28.49 l 74.6,-43.08 -37.35,-215.7" /><path
         id="path146"
         style="fill:#273e47;fill-opacity:1;fill-rule:nonzero;stroke:none"
         d="m 1319.03,3754.29 -0.02,0.01 c 4.61,8.33 8.94,16.75 12.81,25.08 0.01,0 0.01,0 0.02,0 -3.87,-8.33 -8.2,-16.76 -12.81,-25.09 m 96.29,38.92 c -5.92,0 -11.09,1.76 -15.35,5.11 4.22,-3.32 9.36,-5.04 15.24,-5.04 3.15,0 6.52,0.49 10.07,1.51 l -0.04,-0.1 c -3.5,-0.99 -6.81,-1.48 -9.92,-1.48 m -15.45,5.19 c -0.01,0.01 -0.02,0.02 -0.04,0.03 0.02,-0.01 0.03,-0.02 0.04,-0.03 m -0.04,0.03 c -0.01,0.01 -0.02,0.02 -0.03,0.02 0.01,0 0.02,-0.01 0.03,-0.02 m -0.03,0.03 c -0.01,0 -0.02,0.01 -0.03,0.02 0.01,-0.01 0.02,-0.02 0.03,-0.02 m -0.04,0.03 c 0,0.01 -0.01,0.01 -0.02,0.02 0.01,-0.01 0.02,-0.01 0.02,-0.02 m -0.03,0.03 c -0.01,0.01 -0.01,0.02 -0.02,0.02 0.01,0 0.01,-0.01 0.02,-0.02 m -0.03,0.03 c -0.01,0.01 -0.01,0.02 -0.02,0.02 0.01,0 0.01,-0.01 0.02,-0.02 m -0.03,0.03 c -0.01,0.01 -0.01,0.02 -0.02,0.03 0.01,-0.01 0.01,-0.02 0.02,-0.03 m -0.03,0.03 c 0,0.02 -0.01,0.02 -0.02,0.03 0.01,-0.01 0.02,-0.01 0.02,-0.03 m -0.02,0.04 c -0.01,0.01 -0.02,0.02 -0.03,0.03 0.01,-0.01 0.02,-0.02 0.03,-0.03 m -0.03,0.03 c -0.01,0.01 -0.02,0.02 -0.03,0.03 0.01,-0.01 0.02,-0.02 0.03,-0.03 m -0.03,0.04 c -0.01,0.01 -0.01,0.02 -0.02,0.03 0.01,-0.01 0.01,-0.02 0.02,-0.03 m -0.02,0.03 c -0.01,0.02 -0.02,0.03 -0.03,0.04 0.01,-0.01 0.02,-0.02 0.03,-0.04 m -0.03,0.04 c -0.01,0.01 -0.02,0.03 -0.02,0.04 0,-0.01 0.01,-0.03 0.02,-0.04 m -0.02,0.04 c -4.16,6.58 19.6,54.05 45.09,98.68 v -0.01 c -25.47,-44.62 -49.24,-92.08 -45.09,-98.67" /><path
         id="path148"
         style="fill:#1f323a;fill-opacity:1;fill-rule:nonzero;stroke:none"
         d="m 1331.82,3779.38 c 7.31,15.75 12.98,31.13 15.8,44.72 -2.82,-13.59 -8.47,-28.97 -15.78,-44.72 -0.01,0 -0.01,0 -0.02,0 m 15.81,44.79 c 0.01,0.04 0.02,0.09 0.03,0.13 -0.01,-0.04 -0.02,-0.09 -0.03,-0.13 m 0.06,0.29 c 0.01,0.04 0.02,0.08 0.03,0.11 -0.01,-0.04 -0.02,-0.07 -0.03,-0.11 m 0.06,0.29 c 0.01,0.03 0.02,0.06 0.02,0.09 0,-0.03 -0.01,-0.06 -0.02,-0.09 m 0.06,0.29 c 0.01,0.03 0.01,0.06 0.02,0.09 -0.01,-0.03 -0.01,-0.06 -0.02,-0.09 m 0.07,0.34 c 0,0.01 0,0.01 0,0.02 0,-0.01 0,-0.01 0,-0.02 m 0.12,0.61 v 0 0 m 0.05,0.28 c 0,0.01 0,0.03 0.01,0.04 0,-0.01 -0.01,-0.03 -0.01,-0.04 m 0.05,0.28 c 0.01,0.02 0.01,0.04 0.01,0.06 0,-0.02 0,-0.04 -0.01,-0.06 m 0.05,0.29 c 0.01,0.02 0.01,0.04 0.02,0.06 -0.01,-0.02 -0.01,-0.04 -0.02,-0.06 m 0.06,0.29 c 0,0.01 0,0.03 0.01,0.05 -0.01,-0.02 -0.01,-0.04 -0.01,-0.05 m 0.12,0.69 c 0,0.02 0.01,0.05 0.01,0.07 0,-0.02 -0.01,-0.05 -0.01,-0.07 m 0.07,0.41 c 0.01,0.03 0.01,0.06 0.02,0.09 -0.01,-0.03 -0.01,-0.06 -0.02,-0.09 m 0.08,0.41 c 0,0.04 0.01,0.06 0.01,0.09 0,-0.02 -0.01,-0.06 -0.01,-0.09 m 0.07,0.4 c 0,0.02 0.01,0.04 0.01,0.05 0,-0.01 -0.01,-0.03 -0.01,-0.05 m 0.07,0.39 c 0.01,0.03 0.01,0.06 0.02,0.09 -0.01,-0.04 -0.01,-0.06 -0.02,-0.09 m 0.08,0.41 c 0.01,0.04 0.01,0.07 0.02,0.1 -0.01,-0.03 -0.01,-0.06 -0.02,-0.1 m 0.08,0.43 c 0,0.02 0.01,0.05 0.01,0.08 0,-0.03 -0.01,-0.06 -0.01,-0.08 m 0.08,0.4 c 0,0.01 0,0.03 0,0.04 0,-0.01 0,-0.03 0,-0.04 m 0.07,0.39 c 0.01,0.03 0.01,0.05 0.01,0.07 0,-0.02 -0.01,-0.04 -0.01,-0.07 m 0.08,0.44 c 0.01,0 0.01,0.02 0.01,0.02 0,0 0,-0.01 -0.01,-0.02" /><path
         id="path150"
         style="fill:#2d4853;fill-opacity:1;fill-rule:nonzero;stroke:none"
         d="m 1390,3713.32 -70.97,40.97 c 4.61,8.33 8.94,16.76 12.81,25.09 7.31,15.75 12.96,31.13 15.78,44.72 0.01,0.03 0.01,0.04 0.01,0.07 0.01,0.04 0.02,0.09 0.03,0.13 0.01,0.06 0.02,0.11 0.03,0.16 0.01,0.04 0.02,0.07 0.03,0.11 0.01,0.06 0.02,0.12 0.03,0.18 0.01,0.03 0.02,0.06 0.02,0.09 0.02,0.07 0.03,0.14 0.04,0.2 0.01,0.03 0.01,0.06 0.02,0.09 0.02,0.08 0.03,0.17 0.05,0.25 0,0.01 0,0.01 0,0.02 0.04,0.19 0.08,0.39 0.12,0.59 v 0 c 0.01,0.09 0.03,0.19 0.05,0.28 0,0.01 0.01,0.03 0.01,0.04 0.01,0.08 0.03,0.16 0.04,0.24 0.01,0.02 0.01,0.04 0.01,0.06 0.02,0.07 0.03,0.15 0.04,0.23 0.01,0.02 0.01,0.04 0.02,0.06 0.01,0.08 0.02,0.15 0.04,0.23 0,0.01 0,0.03 0.01,0.05 0.01,0.09 0.03,0.19 0.05,0.28 0.02,0.12 0.04,0.24 0.06,0.36 0,0.02 0.01,0.05 0.01,0.07 0.02,0.11 0.04,0.23 0.06,0.34 0.01,0.03 0.01,0.06 0.02,0.09 0.02,0.11 0.04,0.22 0.06,0.32 0,0.03 0.01,0.07 0.01,0.09 0.02,0.11 0.04,0.21 0.06,0.31 0,0.02 0.01,0.04 0.01,0.05 0.02,0.12 0.04,0.22 0.06,0.34 0.01,0.03 0.01,0.05 0.02,0.09 0.02,0.11 0.04,0.21 0.06,0.32 0.01,0.04 0.01,0.07 0.02,0.1 0.02,0.11 0.04,0.22 0.06,0.33 0,0.02 0.01,0.05 0.01,0.08 0.02,0.11 0.04,0.21 0.07,0.32 0,0.01 0,0.03 0,0.04 0.02,0.11 0.05,0.24 0.07,0.35 0,0.03 0.01,0.05 0.01,0.07 0.03,0.12 0.05,0.25 0.07,0.37 0.01,0.01 0.01,0.02 0.01,0.02 6.45,33.26 20.36,67.87 38.48,98.94 l 57.08,-32.95 c -25.49,-44.63 -49.25,-92.1 -45.09,-98.68 0,0 0,0 0,0 0,-0.01 0.01,-0.03 0.02,-0.04 0,0 0,0 0,0 0.01,-0.01 0.02,-0.02 0.03,-0.04 v 0 c 0.01,-0.01 0.01,-0.02 0.02,-0.03 0,-0.01 0,-0.01 0,-0.01 0.01,-0.01 0.02,-0.02 0.03,-0.03 0,0 0,0 0,0 0.01,-0.01 0.02,-0.02 0.03,-0.03 0,-0.01 0,-0.01 0,-0.01 0.01,-0.01 0.02,-0.01 0.02,-0.03 0.01,0 0.01,0 0.01,0 0.01,-0.01 0.01,-0.02 0.02,-0.03 0,0 0.01,0 0.01,-0.01 0.01,0 0.01,-0.01 0.02,-0.02 0,0 0.01,-0.01 0.01,-0.01 0.01,0 0.01,-0.01 0.02,-0.02 0,0 0.01,0 0.01,-0.01 0.01,-0.01 0.02,-0.01 0.02,-0.02 0.01,-0.01 0.01,-0.01 0.01,-0.01 0.01,-0.01 0.02,-0.02 0.03,-0.02 0,0 0,0 0,-0.01 0.01,0 0.02,-0.01 0.03,-0.02 v 0 c 0.02,-0.01 0.03,-0.02 0.04,-0.03 v 0 c 0.03,-0.03 0.07,-0.06 0.1,-0.08 4.26,-3.35 9.43,-5.11 15.35,-5.11 3.11,0 6.42,0.49 9.92,1.48 L 1390,3713.32" /><path
         id="path152"
         style="fill:#273e47;fill-opacity:1;fill-rule:nonzero;stroke:none"
         d="m 1552.54,3899.02 c -8.64,-48.75 -43.78,-103.11 -78.73,-121.41 -24.09,-12.6 -41.66,-4.78 -47.55,17.39 -2.48,9.93 -2.76,22.71 -0.09,37.79 8.65,48.75 43.87,103.11 78.82,121.32 3.5,1.84 6.9,3.31 10.12,4.33 28.79,8.73 45.16,-15.64 37.43,-59.42 z m 233.44,-235.64 -0.55,0.27 c -9.57,5.43 -22.08,5.43 -37.16,-1.19 -53.25,-23.46 -69.35,-31.19 -100.9,-43.69 -8.46,-3.41 -25.48,-0.64 -21.06,28.14 l 0.28,1.93 7.26,41.02 20.14,111.76 c 0,0 4.6,17.56 -7.08,24.18 l -0.83,0.47 c -2.38,1.19 -5.42,1.93 -9.28,2.02 -11.22,0.28 -23.92,8 -33.3,21.25 -10.76,15.08 -17.2,37.34 -12.51,63.92 8.46,47.92 -0.82,81.49 -22.07,94 l -1.65,1.01 c -13.71,7.27 -32.11,6.07 -53.63,-5.24 -56.75,-29.8 -114.05,-118.1 -128.03,-197.39 -8.83,-50.03 -59.14,-127.01 -88.21,-155.34 -29.15,-28.51 -31.08,-52.06 -31.08,-52.06 l -22.63,-128.21 -7.26,-41.03 c -5.34,-30.63 -36.8,-60.24 -36.8,-60.24 l -116.99,-87.75 c -55,-45.71 -81.12,-93.63 -96.3,-145.78 0,0 -43.875,-34.03 -46.633,-36.79 v -0.09 h 0.094 l 0.09,0.09 14.992,8.55 807.827,464.39 c 0,0 9.29,5.06 11.32,6.35 2.02,1.2 34.58,32.01 34.58,32.01 -1.38,26.49 -9.11,45.34 -22.63,53.44" /><path
         id="path154"
         style="fill:#17282f;fill-opacity:1;fill-rule:nonzero;stroke:none"
         d="m 1552.54,3899.02 c -8.64,-48.75 -43.78,-103.11 -78.73,-121.41 -24.09,-12.6 -41.66,-4.78 -47.55,17.39 3.22,1.01 6.63,2.39 10.21,4.22 34.95,18.31 70.18,72.67 78.73,121.42 2.67,15.08 2.49,27.86 -0.09,37.8 28.79,8.73 45.16,-15.64 37.43,-59.42" /><path
         id="path156"
         style="fill:#17282f;fill-opacity:1;fill-rule:nonzero;stroke:none"
         d="m 1518.84,3958.63 c -1.19,0 -2.43,-0.06 -3.73,-0.19 -3.22,-1.02 -6.62,-2.49 -10.12,-4.33 -34.95,-18.21 -70.17,-72.57 -78.82,-121.32 -2.67,-15.08 -2.39,-27.86 0.09,-37.79 0,0 10.69,-16.23 26.46,-16.97 l 0.32,-0.01 c 16.18,0 70.69,55.21 79.42,79.6 8.55,23.88 27.57,101.02 -13.62,101.01 z m 0,-2.3 v 0 c 7.47,0 12.98,-2.66 16.84,-8.15 14.48,-20.56 0.61,-73.02 -5.39,-89.78 -8.36,-23.35 -62.51,-78.08 -77.46,-78.08 -13.24,0.63 -22.9,13.47 -24.44,15.63 -2.41,10.02 -2.4,22.6 0.05,36.44 8.53,48.14 43.36,101.83 77.62,119.68 3.37,1.78 6.57,3.16 9.52,4.1 1.12,0.11 2.21,0.16 3.26,0.16" /><path
         id="path158"
         style="fill:#17282f;fill-opacity:1;fill-rule:nonzero;stroke:none"
         d="m 939.809,3098.54 822.871,473.03 c 0,0 9.33,5.09 11.33,6.32 2.01,1.22 34.58,32.07 34.58,32.07 L 986.352,3135.41 c 0,0 -49.813,-38.59 -46.543,-36.87" /><path
         id="path160"
         style="fill:#dadbd8;fill-opacity:1;fill-rule:nonzero;stroke:none"
         d="m 829.574,2766.87 v -18.72 c 0,-10.16 7.137,-14.28 15.934,-9.2 l 1088.982,628.67 c 8.8,5.08 15.93,17.43 15.93,27.59 v 18.78 c 0,10.17 -7.13,14.28 -15.93,9.21 L 845.508,2794.46 c -8.797,-5.08 -15.934,-17.43 -15.934,-27.59" /><path
         id="path162"
         style="fill:#dadbd8;fill-opacity:1;fill-rule:nonzero;stroke:none"
         d="m 829.574,2653.81 v -18.72 c 0,-10.16 7.137,-14.28 15.934,-9.2 l 1088.982,628.67 c 8.8,5.08 15.93,17.43 15.93,27.59 v 18.79 c 0,10.15 -7.13,14.27 -15.93,9.19 L 845.508,2681.4 c -8.797,-5.08 -15.934,-17.43 -15.934,-27.59" /><path
         id="path164"
         style="fill:#dadbd8;fill-opacity:1;fill-rule:nonzero;stroke:none"
         d="m 829.574,2541.37 v -18.72 c 0,-10.16 7.137,-14.28 15.934,-9.2 l 1088.982,628.67 c 8.8,5.08 15.93,17.43 15.93,27.59 v 18.79 c 0,10.16 -7.13,14.27 -15.93,9.2 L 845.508,2568.97 c -8.797,-5.08 -15.934,-17.44 -15.934,-27.6" /><path
         id="path166"
         style="fill:#dadbd8;fill-opacity:1;fill-rule:nonzero;stroke:none"
         d="m 829.574,2292.31 v -18.73 c 0,-10.15 7.137,-14.27 15.934,-9.2 l 1088.982,628.67 c 8.8,5.08 15.93,17.44 15.93,27.59 v 18.79 c 0,10.16 -7.13,14.28 -15.93,9.2 L 845.508,2319.9 c -8.797,-5.08 -15.934,-17.43 -15.934,-27.59" /><path
         id="path168"
         style="fill:#dadbd8;fill-opacity:1;fill-rule:nonzero;stroke:none"
         d="m 829.574,2179.25 v -18.73 c 0,-10.15 7.137,-14.27 15.934,-9.2 l 1088.982,628.67 c 8.8,5.08 15.93,17.44 15.93,27.59 v 18.79 c 0,10.16 -7.13,14.28 -15.93,9.2 L 845.508,2206.84 c -8.797,-5.08 -15.934,-17.44 -15.934,-27.59" /><path
         id="path170"
         style="fill:#dadbd8;fill-opacity:1;fill-rule:nonzero;stroke:none"
         d="m 829.574,2066.81 v -18.72 c 0,-10.16 7.137,-14.28 15.934,-9.2 l 1088.982,628.66 c 8.8,5.09 15.93,17.44 15.93,27.6 v 18.78 c 0,10.16 -7.13,14.28 -15.93,9.2 L 845.508,2094.4 c -8.797,-5.08 -15.934,-17.43 -15.934,-27.59" /><path
         id="path172"
         style="fill:#dadbd8;fill-opacity:1;fill-rule:nonzero;stroke:none"
         d="m 829.574,1817.74 v -18.72 c 0,-10.16 7.137,-14.28 15.934,-9.2 l 1088.982,628.67 c 8.8,5.08 15.93,17.43 15.93,27.59 v 18.79 c 0,10.15 -7.13,14.28 -15.93,9.19 L 845.508,1845.34 c -8.797,-5.09 -15.934,-17.44 -15.934,-27.6" /><path
         id="path174"
         style="fill:#dadbd8;fill-opacity:1;fill-rule:nonzero;stroke:none"
         d="m 829.574,1704.68 v -18.72 c 0,-10.16 7.137,-14.28 15.934,-9.2 l 1088.982,628.67 c 8.8,5.08 15.93,17.43 15.93,27.59 v 18.79 c 0,10.15 -7.13,14.27 -15.93,9.19 L 845.508,1732.28 c -8.797,-5.09 -15.934,-17.44 -15.934,-27.6" /><path
         id="path176"
         style="fill:#dadbd8;fill-opacity:1;fill-rule:nonzero;stroke:none"
         d="m 829.574,1592.24 v -18.72 c 0,-10.16 7.137,-14.28 15.934,-9.2 l 1088.982,628.67 c 8.8,5.08 15.93,17.44 15.93,27.59 v 18.79 c 0,10.16 -7.13,14.28 -15.93,9.19 L 845.508,1619.83 c -8.797,-5.07 -15.934,-17.43 -15.934,-27.59" /><path
         id="path178"
         style="fill:#dadbd8;fill-opacity:1;fill-rule:nonzero;stroke:none"
         d="m 1389.99,1577.14 560.41,323.55 0.02,-10.79 -560.43,-323.55 v 10.79" /><path
         id="path180"
         style="fill:#33535f;fill-opacity:1;fill-rule:nonzero;stroke:none"
         d="m 1520.36,1745.13 c 23.32,15.65 49.32,41.92 45.12,73.07 -2.56,18.9 -17.89,26.13 -35.28,19.47 -34.12,-13.07 -55.68,-64.44 -67.59,-95.43 -10.41,-27.1 -23.62,-78.2 17.02,-86.84 47.76,-10.15 84.67,59.87 95.4,96.37 1.5,5.1 -6.8,7.87 -9.14,3.3 -4.25,-8.28 -32.38,-63.04 -1.46,-56.22 10.98,2.42 17.35,19.51 21.28,28.21 7.05,15.63 10.57,37.33 21.56,50.74 -2.7,1.23 -5.41,2.46 -8.11,3.7 0.45,-14.4 0.4,-24.22 9.62,-35.38 1.52,-1.84 4.77,-3.05 6.79,-1.17 15.75,14.72 16.89,38.6 34.26,51.94 -2.36,1.13 -4.73,2.25 -7.1,3.37 -0.2,-4.55 -2.04,-17.65 -2.39,-23.82 -0.16,-2.87 3.93,-4.72 6.25,-3.87 5.66,2.1 7.24,3.08 9.93,8.61 -2.53,0.92 -5.06,1.85 -7.58,2.77 6.57,-35.23 36.69,-0.2 47.01,13.4 30.42,40.14 51.38,82.88 52.24,134.17 0.07,4.11 -7.72,6.15 -7.81,1.23 -0.73,-39.35 -17.9,-75.49 -28.98,-112.62 -11.99,-40.2 -21.84,-80.96 -29.74,-122.16 2.38,-0.86 4.76,-1.71 7.14,-2.56 0.7,29.37 11.2,57.18 22,84.18 9.13,22.82 19.4,46.32 37.82,63.19 -2.18,0.83 -4.37,1.65 -6.55,2.48 4.86,-20.37 -3.57,-42.15 -16.01,-58.19 -2.11,-2.73 2.6,-7.75 4.73,-5.09 10.99,13.8 29.11,18.2 40.85,31.56 12.25,13.95 19.73,31.99 29.54,47.6 -1.8,0.91 -3.6,1.81 -5.4,2.71 -0.72,-33.55 30.99,18.82 35.25,24.45 -1.73,0.67 -3.46,1.32 -5.2,1.99 2.1,-6.94 4.97,-11.52 12.76,-11.58 15.46,-0.12 21.29,22.57 32.95,25.21 0.11,0.02 5.15,-4.37 6.92,-4.52 7.14,-0.62 12.2,-0.13 18.7,3.52 13.23,7.43 23.45,21.18 30.64,34.18 1.76,3.16 -4.32,7.17 -6.37,3.68 -7.63,-13 -31.65,-47.46 -49.12,-30.56 -1.03,1.01 -3.4,1.93 -4.54,0.52 -4.67,-5.77 -31.57,-36.61 -36.57,-20.34 -0.62,2.02 -3.53,4.19 -5.19,1.98 -4.08,-5.42 -7.37,-11.43 -11.14,-17.07 -2.07,-3.1 -13.85,-22.82 -13.4,-12.81 0.11,2.35 -3.76,5.23 -5.4,2.71 -10.9,-16.7 -18.92,-38.67 -34.07,-52.22 -11.31,-10.11 -26.19,-13.86 -35.94,-25.92 1.58,-1.7 3.15,-3.39 4.73,-5.09 13.74,17.5 23.62,40.82 18.26,63.18 -0.67,2.79 -4.33,4.52 -6.56,2.48 -18.73,-17.17 -29.26,-41.37 -38.52,-64.57 -11.02,-27.63 -21.65,-55.89 -22.44,-85.92 -0.08,-3.11 6.36,-6.56 7.14,-2.56 8.62,44.38 19.31,88.48 32.9,131.63 10.95,34.77 25.92,68.3 26.62,105.3 -2.6,0.41 -5.21,0.82 -7.81,1.23 -0.63,-40.12 -12.95,-73.48 -34.68,-106.94 -5.68,-8.75 -11.55,-17.4 -17.93,-25.65 -2.84,-3.69 -27.63,-36.06 -30.85,-17.25 -0.46,2.72 -5.77,6.46 -7.58,2.77 -2.41,-2.13 -4.81,-4.25 -7.22,-6.37 2.08,-1.29 4.16,-2.58 6.24,-3.87 0.48,8.11 2.07,15.76 2.45,23.89 0.15,3.18 -4.78,5.15 -7.1,3.38 -17.65,-13.51 -18.92,-37.4 -34.88,-52.09 2.26,-0.4 4.52,-0.79 6.78,-1.18 -5.5,9.55 -8.01,19.6 -7.52,30.15 -0.07,3.46 -5.41,6.94 -8.11,3.7 -12.22,-14.63 -16.01,-37.89 -24.06,-54.93 -4.39,-9.31 -20.35,-34.13 -14.92,-7.64 2.19,10.74 9.04,21.38 14.03,31.05 -3.05,1.1 -6.09,2.2 -9.14,3.3 -9.44,-31.8 -34.52,-80.08 -68.83,-90.36 -43.85,-13.15 -36.23,41.17 -28.18,65.32 9.28,27.85 23.8,54.99 41.75,78.24 3.47,4.49 7.07,9.17 11.27,12.99 8.91,8.06 11.57,9.6 23.96,2.95 13,-6.97 12.96,-11.08 9.56,-24.39 -1.68,-6.58 -4.67,-13.16 -8.17,-18.94 -7.5,-12.38 -18.25,-22.43 -29.44,-31.41 -1.59,-1.28 0.73,-5.56 2.55,-4.34" /><path
         id="path182"
         style="fill:#c35363;fill-opacity:1;fill-rule:nonzero;stroke:none"
         d="m 2863.84,2369.01 c -36.22,8.55 -76.04,-17.19 -99.37,-74.07 -23.32,-56.88 -69.93,-201.92 -79.63,-239.93 -4.35,-17.02 124.83,-167.67 120.21,-165.41 -1.42,0.69 42.08,73.48 42.08,73.48 l -62.69,96.48 39.28,104.76 40.12,204.69" /><path
         id="path184"
         style="fill:#17282f;fill-opacity:1;fill-rule:nonzero;stroke:none"
         d="m 2780.35,1020.98 c -4.92,-1.86 -6.16,-11.2 -6.9,-29.789 -0.56,-14.07 -3.57,-38.632 12.9,-43.531 16.48,-4.898 40.62,-2.398 51.17,10.86 13.19,16.55 22.09,31.121 40.9,51.31 16.32,17.51 33.97,33.87 40.55,58.43 5.96,22.2 1,31.82 -14.14,38.28 -20.83,8.88 -53.55,-20.12 -69.87,-24.69 -14.05,-3.93 -49.7,-59.01 -54.61,-60.87" /><path
         id="path186"
         style="fill:#c35363;fill-opacity:1;fill-rule:nonzero;stroke:none"
         d="m 2780.35,1038.19 v -22.82 c 0,0 23.73,-18.241 57.67,-1.56 1,2.2 5.99,32.65 5.99,32.65 l -63.66,-8.27" /><path
         id="path188"
         style="fill:#17282f;fill-opacity:1;fill-rule:nonzero;stroke:none"
         d="m 2950.18,899.699 c 0,0 -6.54,-19.859 -10.07,-37.211 -2.81,-13.797 -6.82,-36.859 -1.99,-47.25 4.83,-10.367 23.68,-17.066 52.9,-16.847 18.93,0.148 48.42,-12.711 68.61,-23.981 20.86,-11.64 43.49,-11.68 65.56,-9.09 26,3.051 52.93,18.129 57.13,28.899 4.21,10.769 -1.19,15.941 -62.47,42.051 -0.56,0.242 -64.61,29.16 -94.26,61.878 l -75.41,1.551" /><path
         id="path190"
         style="fill:#c35363;fill-opacity:1;fill-rule:nonzero;stroke:none"
         d="m 2950.18,924.371 c 0,0 0.09,-16.941 0,-26.621 -0.08,-9.68 11.36,-24.102 40.95,-23.039 20.78,0.738 35.29,6.328 34.46,23.449 v 24.672 l -75.41,1.539" /><path
         id="path192"
         style="fill:#26b6a6;fill-opacity:1;fill-rule:nonzero;stroke:none"
         d="m 2757.88,1354.61 c 10.44,74.57 27.86,117.39 27.86,117.39 0,0 -12.87,100.98 -20.35,198.01 -13.38,173.84 -2.63,230.68 31.56,308.65 0,0 291.74,29.57 300.63,-91.67 11.09,-150.99 -3.61,-442.78 -7.62,-496.12 -4.01,-53.34 -8.97,-77.36 -27.84,-188.83 -14.36,-84.8 -36.53,-279.208 -36.53,-279.208 -38.71,-20.934 -75.41,1.539 -75.41,1.539 0,0 -23.85,242.769 -21.35,304.319 3.06,75.15 23.34,134.33 23.34,134.33 0,0 -18.08,246.06 -23.36,285.23 0,0 -9.11,-78.05 -13.11,-131.39 -4.02,-53.34 -19.86,-104.29 -35.29,-203.36 -13.37,-85.95 -38.25,-278.05 -38.25,-278.05 -38.71,-20.93 -61.81,2.74 -61.81,2.74 0,0 -32.92,241.84 -22.47,316.42" /><path
         id="path194"
         style="fill:#06a088;fill-opacity:1;fill-rule:nonzero;stroke:none"
         d="m 2990.41,913.91 c -23.15,0 -40.23,10.461 -40.23,10.461 0,0 -21.53,219.189 -21.53,293.829 0,3.91 0.06,7.42 0.18,10.49 3.06,75.15 23.34,134.33 23.34,134.33 v 0 0 c 0,0 -18.08,246.06 -23.36,285.23 v 0 l -5.52,58.97 c 0,0 -42.84,4.14 -89,33.68 0,0 18.94,-30.37 70.96,-44.2 l 5.42,-75.02 3.2,-122.95 1.87,18.72 c -0.01,-0.2 -0.03,-0.4 -0.04,-0.59 -4.02,-53.34 -19.86,-104.29 -35.29,-203.36 -13.37,-85.95 -38.25,-278.05 -38.25,-278.05 -11.86,-6.41 -22.27,-8.64 -30.99,-8.64 -19.71,0 -30.82,11.38 -30.82,11.38 0,0 -24.51,180.03 -24.52,277.33 -0.01,15.47 0.61,28.86 2.05,39.09 10.44,74.57 27.86,117.39 27.86,117.39 v 0 0 c 0,0 -12.87,100.98 -20.35,198.01 -3.72,48.38 -5.58,87.7 -5.58,120.94 0,86.17 12.46,131.44 37.14,187.71 0,0 31.37,3.18 73.83,3.18 87.06,0 220.82,-13.35 226.8,-94.85 2.93,-39.88 4.06,-89.59 4.06,-142.14 0.01,-146.37 -8.73,-314.73 -11.68,-353.98 -4.01,-53.34 -8.97,-77.36 -27.84,-188.83 -14.36,-84.8 -36.53,-279.208 -36.53,-279.208 -12.3,-6.652 -24.4,-8.922 -35.18,-8.922" /><path
         id="path196"
         style="fill:#c35363;fill-opacity:1;fill-rule:nonzero;stroke:none"
         d="m 3013.27,2408.26 -13.71,-112.73 -99.12,8.95 11.33,125.13 101.5,-21.35" /><path
         id="path198"
         style="fill:#e7e8e5;fill-opacity:1;fill-rule:nonzero;stroke:none"
         d="m 2791.68,2312.52 c 10.9,29.65 47.95,62.68 86.06,55.6 9.93,-1.85 18.65,-3.3 28,-5.18 0.86,-25.96 49.79,-39.41 98.57,-23.65 14.67,-4.21 28.1,-8.49 40.28,-12.84 34.89,-12.46 48.91,-70.41 49.68,-167.35 0.77,-96.94 11.09,-338.73 11.09,-338.73 l -40.79,-12.83 -19.06,70.73 -7.67,-84.72 c -44.15,-11.12 -90.5,-10.32 -140.85,0.68 -104.83,22.91 -137.45,79.46 -137.45,79.46 0,0 12.89,87.76 74.75,183.26 -52.55,139.76 -58.77,211.56 -42.61,255.57" /><path
         id="path200"
         style="fill:#17282f;fill-opacity:1;fill-rule:nonzero;stroke:none"
         d="m 3086.91,2551.46 c 0,0 20.77,39.46 -7.46,83.8 -33.28,52.24 -97.42,61.15 -173.43,40.77 -37.68,-10.1 -90.36,-50.14 -95.08,-122.41 -3.64,-55.73 151.81,-96.85 148.26,-135.04 l 127.71,132.88" /><path
         id="path202"
         style="fill:#aa3b4b;fill-opacity:1;fill-rule:nonzero;stroke:none"
         d="m 3090.26,2530.29 c 0,0 21.08,-33.83 18.12,-37.27 -2.96,-3.43 -17.04,-6.8 -17.04,-6.8 l -1.08,44.07" /><path
         id="path204"
         style="fill:#c35363;fill-opacity:1;fill-rule:nonzero;stroke:none"
         d="m 3025.91,2637.42 c 21.08,-11.62 57.46,-33.02 64.85,-112 7.56,-81.08 -11.19,-108.68 -22.48,-118.98 -7.64,-6.95 -46.09,-8.51 -65.93,-1.76 -24.85,8.45 -78.38,36.74 -102.7,79.13 -28.6,49.88 -33.01,115.46 2.22,140.17 49.58,34.78 106.21,23.27 124.04,13.44" /><path
         id="path206"
         style="fill:#17282f;fill-opacity:1;fill-rule:nonzero;stroke:none"
         d="m 3032.13,2633.87 c 0,0 16.64,-74.23 -6.93,-120.22 0,0 -12.29,29.12 -37.25,21.54 -25.11,-7.65 -23.73,-40.9 -4.6,-58.4 19.14,-17.49 38.38,-9.24 38.38,-9.24 0,0 -11.4,-31.28 -37.07,-55.98 0,0 -73.87,-32.94 -137.85,39.27 -58.05,65.52 -47.25,179.79 41.64,206.75 88.9,26.94 143.68,-23.72 143.68,-23.72" /><path
         id="path208"
         style="fill:#17282f;fill-opacity:1;fill-rule:nonzero;stroke:none"
         d="m 2821.47,2626.21 c 7.29,-6.28 8.12,-17.28 1.85,-24.57 l -26.41,22.73 c 6.27,7.29 17.27,8.11 24.56,1.84" /><path
         id="path210"
         style="fill:#c35363;fill-opacity:1;fill-rule:nonzero;stroke:none"
         d="m 3295.43,2147.89 c 14.38,16.43 19.88,52.99 39.06,77.96 18.72,24.4 26.15,43.35 33.72,32.41 10.01,-14.45 -12.58,-43.37 -7.57,-46.27 5.01,-2.89 23.8,-41.01 25.69,-62.2 1.9,-21.19 -54.19,-74.42 -54.19,-74.42 l -36.71,72.52" /><path
         id="path212"
         style="fill:#c35363;fill-opacity:1;fill-rule:nonzero;stroke:none"
         d="m 3359.08,2215.23 c 0,0 67.81,5.88 77.69,0.18 9.88,-5.7 6.9,-35.22 0,-53.22 -6.9,-18 -41.48,-29.71 -73.58,-51.45 -0.08,3.09 -4.11,104.49 -4.11,104.49" /><path
         id="path214"
         style="fill:#c35363;fill-opacity:1;fill-rule:nonzero;stroke:none"
         d="m 3035.92,2329.44 c 29.14,-10.14 54.64,-21.88 81.84,-72.98 34.94,-65.67 98.48,-194.3 98.48,-194.3 l 79.19,85.73 c 0,0 11.53,16.24 32.96,-19.18 21.44,-35.42 11.97,-45.22 11.97,-45.22 0,0 -92.13,-123.4 -109.05,-139.11 -16.91,-15.7 -44.69,-3.49 -62.81,21.21 -18.12,24.7 -132.58,167.81 -132.58,167.81 0,0 -62.5,82.2 0,196.04" /><path
         id="path216"
         style="fill:#babcba;fill-opacity:1;fill-rule:nonzero;stroke:none"
         d="m 2915.74,1517.45 c 4.03,53.32 13.07,130.8 13.07,130.8 v 0 l -13.07,-130.8" /><path
         id="path218"
         style="fill:#0b7b6a;fill-opacity:1;fill-rule:nonzero;stroke:none"
         d="m 2913.87,1498.73 -3.2,122.95 -5.42,75.02 c -52.02,13.83 -70.96,44.2 -70.96,44.2 46.16,-29.54 89,-33.68 89,-33.68 l 5.52,-58.97 c 0,0 -9.04,-77.48 -13.07,-130.8 l -1.87,-18.72" /><path
         id="path220"
         style="fill:#17282f;fill-opacity:1;fill-rule:nonzero;stroke:none"
         d="m 2721.12,2345.13 v 0 c 56.66,0 102.6,45.93 102.6,102.59 v 155.88 c -50.67,16.4 -102.6,-21.37 -102.6,-74.63 v -183.84" /><path
         id="path222"
         style="fill:#dadbd8;fill-opacity:1;fill-rule:nonzero;stroke:none"
         d="m 3096.57,2057.31 c 0,0 -56.94,73.35 -75.07,102.91 l 77.03,-162.8 -1.96,59.89" /><path
         id="path224"
         style="fill:#f6879f;fill-opacity:1;fill-rule:nonzero;stroke:none"
         d="m 3595.5,2660.03 c -21.61,-63.64 -67.7,-253.62 -67.7,-253.62 0,0 -87.97,-116.96 -112.11,-139.24 -13.45,-12.4 -43.77,-34.71 -43.77,-34.71 l 25.21,-18.57 c 0,0 42.06,12.79 45.49,-10.35 46.98,37.08 98.77,87.05 124.04,114.03 9.65,10.31 16.45,22.9 19.65,36.65 l 37.65,161.54 c 0,0 -0.24,129.99 19.93,147.05 20.17,17.06 12.08,55.48 12.08,55.48 -13.47,-0.4 -43.49,-8.29 -60.47,-58.26" /><path
         id="path226"
         style="fill:#26b6a6;fill-opacity:1;fill-rule:nonzero;stroke:none"
         d="m 3656.97,2724.63 c 0,0 11.24,-31.61 22.18,-50.27 8.81,-15.07 -58.54,-286.62 -63,-306.8 -4.47,-20.18 -134.98,-137.85 -134.98,-137.85 0,0 -33.06,10.74 -52.25,52.41 l 94.25,122.53 c 0,0 29.25,128.67 44.71,187.61 15.45,58.93 31.8,126.03 89.09,132.37" /><path
         id="path228"
         style="fill:#1db3a0;fill-opacity:1;fill-rule:nonzero;stroke:none"
         d="m 3481.17,2229.71 c 0,0 -1.75,0.57 -4.68,1.95 -9.74,4.6 -32.52,18.21 -47.3,49.88 -0.09,0.19 -0.18,0.38 -0.27,0.58 l 94.25,122.53 c 0,0 29.25,128.67 44.71,187.61 15.45,58.93 31.8,126.03 89.09,132.37 0,0 0,-0.01 0.01,-0.03 -47.24,-14.54 -48.04,-44.45 -53.1,-109.76 -2.61,-33.65 -4.65,-168.43 -5.88,-272.05 -36.89,-41 -116.83,-113.08 -116.83,-113.08" /><path
         id="path230"
         style="fill:#f6879f;fill-opacity:1;fill-rule:nonzero;stroke:none"
         d="m 3932.62,1337.41 h -65.05 v 111.36 h 65.05 v -111.36" /><path
         id="path232"
         style="fill:#f6879f;fill-opacity:1;fill-rule:nonzero;stroke:none"
         d="m 3666.57,1421.74 -65.01,-2.24 -3.25,117.85 68.26,2.23 v -117.84" /><path
         id="path234"
         style="fill:#273e47;fill-opacity:1;fill-rule:nonzero;stroke:none"
         d="m 3923.48,2243.69 c 0,-62.12 4.28,-423.28 4.28,-423.28 1.51,-17.88 18.72,-49.66 20.06,-114.04 1.94,-93.36 -12.41,-313.28 -12.41,-313.28 0,0 -31.59,-18.45 -72.44,-1.43 0,0 -51.08,311.06 -62.74,403.48 -10.17,80.65 -45.26,295.96 -45.26,295.96 l -49.72,-272.63 c 0,0 11.99,-48.1 8.06,-103.38 -3.04,-42.74 -42.62,-256.85 -42.62,-256.85 0,0 -30.63,-20.77 -75.11,-5.74 0,0 -3.88,336.08 -4.63,375.3 -0.86,44.71 18.64,429.33 18.64,429.33 l 313.89,-13.44" /><path
         id="path236"
         style="fill:#17282f;fill-opacity:1;fill-rule:nonzero;stroke:none"
         d="m 3867.57,1369.52 v 9.29 c -3.48,0.08 -5.64,-3.38 -6.98,-11.76 -0.95,-5.99 -1.84,-10.52 -3.8,-18.4 -3.02,-12.05 -5.73,-19.41 -11.37,-33.29 -9.18,-22.66 -16.91,-31.1 -37.96,-57.59 -5,-6.28 -16.27,-16.27 -20.21,-23.26 -3.92,-7 -5.31,-26.48 1.37,-30.93 24.56,-16.37 61.85,-16.83 88.23,-9.1 20.29,5.95 34.94,22.16 38.31,43.04 0.97,6 0.61,12.13 1.29,18.16 1.57,13.77 8.49,26.34 16.29,37.79 4.53,6.64 9.46,13.12 12.5,20.56 5.46,13.37 1.08,28.41 -2.4,41.73 -3.02,11.5 -6.29,24.14 -10.22,23.07 -0.01,-1.41 0,-7.1 0,-7.1 -4.72,-5.23 -17.78,-10.42 -32.52,-10.99 -9.52,-0.36 -32.6,1.53 -32.53,8.78" /><path
         id="path238"
         style="fill:#17282f;fill-opacity:1;fill-rule:nonzero;stroke:none"
         d="m 3600.87,1439.56 c -3.37,-0.12 -6.13,-4.88 -13.58,-12.94 -9,-9.75 -23.73,-20.26 -38.26,-27.54 -24.36,-12.19 -71.71,-30.94 -93.15,-40.6 -13.38,-6.03 -12.76,-22.21 1.09,-31.41 13.84,-9.2 47.24,-15.83 87.37,-6.86 21.86,4.89 50.3,25.07 68.32,23.98 18.01,-1.08 51.7,-0.83 65,8.34 13.29,9.16 7.97,28.73 4.21,45.55 -4.09,18.35 -9.23,46.96 -15.3,45.71 v -6.32 c -7.82,-11.84 -48.18,-16.66 -65.35,-7.95 l -0.35,10.04" /><path
         id="path240"
         style="fill:#17282f;fill-opacity:1;fill-rule:nonzero;stroke:none"
         d="m 3754.97,2091.1 c 0,0 -52,14.64 -90.59,51.93 0,0 17.48,-32.72 69.46,-63.18 l -25.15,-242.5 46.28,253.75" /><path
         id="path242"
         style="fill:#f3f2f1;fill-opacity:1;fill-rule:nonzero;stroke:none"
         d="m 3810.7,2720.24 c 22.11,-5.32 66.72,-12.62 76.74,-56.73 12.02,-52.95 15.93,-168.27 15.93,-168.27 l 4.12,-256.57 c -44.81,-32.63 -209.33,-50.39 -303.61,18.46 0,0 11.53,308.1 11.53,356.05 0,47.96 26.65,105.57 100.22,109.85 l 95.07,-2.79" /><path
         id="path244"
         style="fill:#26b6a6;fill-opacity:1;fill-rule:nonzero;stroke:none"
         d="m 3716.66,2727.99 c 0,0 -33.07,-26.25 -42.02,-65.05 -8.95,-38.79 -10.4,-472.07 -10.4,-472.07 0,0 -45.98,8.49 -67.53,25.41 0,0 2.79,342.03 7.17,398.56 6.64,85.76 5.94,110.48 112.72,119.52 l 0.06,-6.37" /><path
         id="path246"
         style="fill:#26b6a6;fill-opacity:1;fill-rule:nonzero;stroke:none"
         d="m 3830.08,2734.36 c -0.01,0.05 -61.31,-37.72 -61.99,-187.77 -0.59,-129.73 -4.93,-355.72 -4.93,-355.72 0,0 101.5,-14.91 165.8,23.5 0,0 7.67,314.6 6.45,363.32 -1.41,55.79 -14.46,127.89 -32.32,135.06 -32.58,13.08 -73.01,21.61 -73.01,21.61" /><path
         id="path248"
         style="fill:#f6879f;fill-opacity:1;fill-rule:nonzero;stroke:none"
         d="m 4058.1,2389.77 c -61.03,249.43 -106.15,332.63 -180.27,331.66 -21.64,-25.87 -15.67,-104 18.54,-151.43 0,0 76.25,-160.87 88.42,-218.06 10.68,-50.24 22.79,-113.45 22.02,-156.64 -0.13,-7.65 -3.29,-14.92 -8.47,-20.55 -13.92,-15.09 -13.98,-27.24 -23,-43.94 -7.06,-13.07 -14.79,-17.95 -12.59,-20.89 2.83,-3.78 11.78,-8.71 22.89,-1.69 5.6,3.53 9.24,7.67 17.35,16.64 0,0 -2.21,-20.24 -13.76,-46.28 -15.64,-35.29 -11.83,-53.3 35.8,-40.72 29.86,7.87 48.6,32.74 53.07,104.49 1.29,20.67 3.23,53.28 0.79,79.41 -6.38,68.04 -10.96,127.85 -20.79,168" /><path
         id="path250"
         style="fill:#26b6a6;fill-opacity:1;fill-rule:nonzero;stroke:none"
         d="m 3865.15,2725.49 c 0,0 49.13,2.23 75.72,-24.67 26.61,-26.91 62.53,-83.5 97.32,-207.25 34.79,-123.76 45.43,-214.06 47.2,-283.73 0,0 -43.59,-20.34 -83.81,2.88 0,0 -17.82,107.65 -33.61,164.93 -15.79,57.28 -74.71,178.03 -74.71,178.03 0,0 -56.31,83.66 -28.11,169.81" /><path
         id="path252"
         style="fill:#1db3a0;fill-opacity:1;fill-rule:nonzero;stroke:none"
         d="m 4044.5,2201.6 c -13.25,0 -28.31,2.68 -42.92,11.12 0,0 -17.82,107.65 -33.61,164.93 -6.39,23.19 -19.85,56.79 -33.62,88.56 -20.22,46.7 -41.09,89.47 -41.09,89.47 0,0 -36.02,53.51 -36.02,119.02 0.01,16.39 2.27,33.54 7.91,50.79 0,0 1,0.04 2.79,0.04 10.76,0 50.13,-1.64 72.93,-24.71 26.61,-26.91 62.53,-83.5 97.32,-207.25 34.79,-123.76 45.43,-214.06 47.2,-283.73 0,0 -17.67,-8.24 -40.89,-8.24" /><path
         id="path254"
         style="fill:#1db3a0;fill-opacity:1;fill-rule:nonzero;stroke:none"
         d="m 3786,2483.43 36.92,94.57 -14.04,39.56 28.07,34.74 -22.02,-36.96 15.57,-37.34 -44.5,-94.57" /><path
         id="path256"
         style="fill:#1db3a0;fill-opacity:1;fill-rule:nonzero;stroke:none"
         d="m 3654.53,2489.43 -33.81,106.48 24.31,31.65 -6.1,35.92 11.85,-39.16 -22.43,-29.59 26.18,-105.3" /><path
         id="path258"
         style="fill:#17282f;fill-opacity:1;fill-rule:nonzero;stroke:none"
         d="m 3794.83,2934.03 c 0,-49.37 -40.02,-89.4 -89.4,-89.4 -49.37,0 -89.39,40.03 -89.39,89.4 0,49.37 40.02,89.39 89.39,89.39 49.38,0 89.4,-40.02 89.4,-89.39" /><path
         id="path260"
         style="fill:#17282f;fill-opacity:1;fill-rule:nonzero;stroke:none"
         d="m 3859.97,2870.47 c 0,0 -14.5,-68.06 -20.31,-79.24 -5.8,-11.19 -17.81,-14.36 -17.81,-14.36 l 1.02,47.87 37.1,45.73" /><path
         id="path262"
         style="fill:#17282f;fill-opacity:1;fill-rule:nonzero;stroke:none"
         d="m 3841.78,2967.96 c 0,0 15.61,2.68 27.77,-9.76 11.92,-12.19 5.26,-50.35 -9.58,-87.73 l -27.29,-3.14 9.1,100.63" /><path
         id="path264"
         style="fill:#f6879f;fill-opacity:1;fill-rule:nonzero;stroke:none"
         d="m 3824.5,2867.31 c 5.47,-3.27 13.27,7.25 20.02,14.31 6.74,7.06 28.78,16.7 39.76,-6.45 11.19,-23.6 -9.7,-54.77 -27.04,-60.22 -29.89,-9.38 -34.37,9.79 -34.37,9.79 l -2.21,-111.1 c -20.67,-26.49 -67.09,-57.63 -92.08,-53.18 -19.94,3.54 -24.3,37.25 -5.23,59.33 l 0.08,32.81 c 0,0 -27.08,-4.11 -40.28,-2.07 -21.98,3.4 -35.81,20.74 -42.47,44.53 -10.71,38.21 -14.78,69.07 -5.69,144.22 9.96,82.37 105.76,83.23 157.5,50.66 51.73,-32.56 32.01,-122.63 32.01,-122.63" /><path
         id="path266"
         style="fill:#17282f;fill-opacity:1;fill-rule:nonzero;stroke:none"
         d="m 3824.49,2858.11 c 2.75,-0.06 13.22,17.31 20.03,23.51 9.44,8.58 -2.74,86.34 -2.74,86.34 0,0 11.68,21.99 -6.49,41.99 -12.93,14.23 -30.97,31.6 -89.64,24.67 -41.82,-4.95 -87.33,-17.99 -124.1,0.07 -5.51,-22.88 -1.07,-48.4 21.79,-66.48 0,0 13.32,-8.59 48.33,-12.85 35,-4.26 89.54,0.82 96.99,1.84 10.15,1.39 12.32,-8.45 17.79,-35.32 4.8,-23.6 8.79,-63.59 18.04,-63.77" /><path
         id="path268"
         style="fill:#17282f;fill-opacity:1;fill-rule:nonzero;stroke:none"
         d="m 3841.72,2961.92 33.09,17.76 c -4.7,9.48 -15.91,13.19 -25.04,8.28 -9.14,-4.9 -12.73,-16.56 -8.05,-26.04" /><path
         id="path270"
         style="fill:#f47089;fill-opacity:1;fill-rule:nonzero;stroke:none"
         d="m 3723.43,2752.6 c 0,0 49.07,9.89 66.22,19 11.48,6.11 20.93,16.68 23.71,23.46 0,0 -3.22,-14.56 -13.47,-27.67 -12.54,-16.04 -76.46,-27.84 -76.46,-27.84 v 13.05" /><path
         id="path272"
         style="fill:#17282f;fill-opacity:1;fill-rule:nonzero;stroke:none"
         d="m 3735.23,2879.58 c 0,-5.64 4.4,-10.2 9.82,-10.19 5.44,0.01 9.84,4.6 9.84,10.24 0,5.64 -4.4,10.2 -9.84,10.19 -5.42,-0.02 -9.82,-4.6 -9.82,-10.24" /><path
         id="path274"
         style="fill:#17282f;fill-opacity:1;fill-rule:nonzero;stroke:none"
         d="m 3745.65,2916.7 21.03,-11.61 c 3.11,6.04 0.91,13.54 -4.9,16.75 -5.8,3.2 -13.03,0.9 -16.13,-5.14" /><path
         id="path276"
         style="fill:#f47089;fill-opacity:1;fill-rule:nonzero;stroke:none"
         d="m 3727.88,2811.66 -22.45,-8.42 c 2.22,-6.43 9.05,-9.76 15.25,-7.44 6.2,2.33 9.42,9.43 7.2,15.86" /><path
         id="path278"
         style="fill:#17282f;fill-opacity:1;fill-rule:nonzero;stroke:none"
         d="m 3647.55,2908.51 19.18,14.78 c -3.91,5.49 -11.37,6.63 -16.67,2.55 -5.3,-4.08 -6.42,-11.84 -2.51,-17.33" /><path
         id="path280"
         style="fill:#17282f;fill-opacity:1;fill-rule:nonzero;stroke:none"
         d="m 3653.46,2882.38 c 0,-5.65 4.4,-10.21 9.83,-10.19 5.43,0.02 9.83,4.6 9.83,10.24 0,5.64 -4.4,10.21 -9.83,10.19 -5.43,-0.01 -9.83,-4.6 -9.83,-10.24" /><path
         id="path282"
         style="fill:#f47089;fill-opacity:1;fill-rule:nonzero;stroke:none"
         d="m 3703.55,2891.7 -3.23,-59.13 -30.87,10.53 z" /><path
         id="path284"
         style="fill:#26b6a6;fill-opacity:1;fill-rule:nonzero;stroke:none"
         d="m 3692.87,2667.25 c 6.03,-14.33 17.15,-20.17 37.33,-22.44 20.18,-2.26 44.68,7.73 55.8,19.42 l -25.09,24.98 -31.81,-23.97 -2.71,26.7 -33.52,-24.69" /><path
         id="path286"
         style="fill:#1db3a0;fill-opacity:1;fill-rule:nonzero;stroke:none"
         d="m 3752.58,2646.58 c 2.77,6.57 4.39,13.9 4.06,21.8 l -27.54,-3.14 -20.42,9.83 c 0,0 -4.01,-11.14 -3.64,-22.83 -5.43,3.49 -9.36,8.32 -12.17,15.01 l 33.52,24.69 2.71,-26.7 31.81,23.97 25.09,-24.98 c -0.38,-0.39 -0.77,-0.79 -1.18,-1.18 -7.33,-7.06 -19.41,-13.35 -32.24,-16.47" /><path
         id="path288"
         style="fill:#26b6a6;fill-opacity:1;fill-rule:nonzero;stroke:none"
         d="m 3708.68,2675.07 c 0,0 -4.97,-13.83 -3.32,-26.85 1.77,-13.94 8.96,-22.37 8.96,-22.37 0,0 8.01,-6.37 21.68,-2.36 10.68,9.86 21.46,25.67 20.64,44.89 l -27.54,-3.14 -20.42,9.83" /><path
         id="path290"
         style="fill:#26b6a6;fill-opacity:1;fill-rule:nonzero;stroke:none"
         d="m 3714.32,2625.85 c 0,0 -32.65,-180.19 -33.97,-194.73 -1.32,-14.54 18.76,-66.21 31.2,-66.65 12.45,-0.44 36.88,46.33 37.25,59.55 0.38,13.23 -12.8,199.47 -12.8,199.47 l -21.68,2.36" /><path
         id="path292"
         style="fill:#d5d7d4;fill-opacity:1;fill-rule:nonzero;stroke:none"
         d="m 3736.35,2618.53 c -0.22,3.2 -0.35,4.96 -0.35,4.96 l 0.35,-4.96 v 0 m -22.54,4.47 c -0.01,0 -0.01,0 -0.01,0 l 0.52,2.82 c -0.03,-0.14 -0.21,-1.12 -0.51,-2.82" /><path
         id="path294"
         style="fill:#1db3a0;fill-opacity:1;fill-rule:nonzero;stroke:none"
         d="m 3729.31,2617.53 c -9.38,0 -15.39,5.36 -15.5,5.47 0.3,1.7 0.48,2.68 0.51,2.82 v 0.03 c 4.4,-3.28 8.89,-4.23 12.64,-4.23 5.25,0 9.04,1.87 9.04,1.87 v 0 c 0,0 0.13,-1.76 0.35,-4.96 -2.51,-0.71 -4.87,-1 -7.04,-1" /><path
         id="path296"
         style="fill:#dadbd8;fill-opacity:1;fill-rule:nonzero;stroke:none"
         d="m 3729.1,2665.24 91.99,70.08 0.41,20.78 c 0,0 21.39,-8.11 26.19,-45.85 -13.11,-30.45 -36.86,-56.43 -71.73,-76.31 l -19.32,34.44 -27.54,-3.14" /><path
         id="path298"
         style="fill:#dadbd8;fill-opacity:1;fill-rule:nonzero;stroke:none"
         d="m 3723.43,2746.55 c 0,0 -20.45,-3.03 -29.67,-18.24 -9.2,-15.18 -7.09,-73.23 -7.09,-73.23 l 22.01,19.99 20.42,-9.83 c -1.96,19.35 -5.75,54.55 -5.75,54.55 l 0.08,26.76" /><path
         id="path300"
         style="fill:#f6879f;fill-opacity:1;fill-rule:nonzero;stroke:none"
         d="m 3364.54,2110.06 c 9.18,13.39 12,22.18 14.56,41.1 2.55,18.92 54.4,39.21 56.04,25.12 1.63,-14.09 6.38,-25.85 -9.57,-42.88 -15.95,-17.03 -37.31,-35.99 -61.03,-23.34" /><path
         id="path302"
         style="fill:#f6879f;fill-opacity:1;fill-rule:nonzero;stroke:none"
         d="m 3366.85,2232.19 c -12.39,-16.04 -20.08,-47.13 -26.61,-57.58 -6.53,-10.45 -14.38,-19.6 0,-21.57 14.38,-1.96 35.29,26.14 43.13,43.14 3.92,8.49 9.15,13.89 13.39,17.17 4.25,3.28 7.52,4.43 7.52,4.43 -6.78,2.27 -3.19,29.3 -7.97,33.01 0,0 -24.39,-9.98 -29.46,-18.6" /></g></g></svg>