<?xml version="1.0" standalone="no"?>
<!DOCTYPE svg PUBLIC "-//W3C//DTD SVG 20010904//EN"
 "http://www.w3.org/TR/2001/REC-SVG-20010904/DTD/svg10.dtd">
<svg version="1.0" xmlns="http://www.w3.org/2000/svg"
 width="427.000000pt" height="181.000000pt" viewBox="0 0 427.000000 181.000000"
 preserveAspectRatio="xMidYMid meet">
<metadata>
Created by potrace 1.16, written by Peter Selinger 2001-2019
</metadata>
<g transform="translate(0.000000,181.000000) scale(0.100000,-0.100000)"
fill="#000000" stroke="none">
<path d="M204 1796 c-59 -26 -74 -58 -74 -160 0 -68 4 -97 16 -115 16 -22 14
-26 -65 -143 -44 -67 -81 -131 -81 -144 0 -30 27 -44 84 -44 l46 0 0 -298 c0
-289 1 -299 23 -342 13 -26 40 -57 65 -75 l44 -30 390 -3 c421 -3 468 1 526
45 68 51 72 72 72 406 l0 297 49 0 c52 0 81 17 81 48 0 9 -36 70 -80 134 -80
117 -81 118 -65 147 10 20 15 59 15 119 0 101 -15 133 -76 158 -48 20 -924 20
-970 0z m941 -161 l0 -60 -455 0 -455 0 -3 49 c-2 27 -1 55 2 62 5 12 80 14
458 12 l453 -3 0 -60z m30 -262 l57 -86 -74 6 c-50 3 -103 16 -163 40 -131 50
-177 54 -272 20 -101 -35 -179 -36 -243 -3 -73 39 -149 34 -240 -13 -40 -21
-75 -36 -77 -33 -3 2 18 38 46 80 l52 76 428 0 428 0 58 -87z m-265 -335 l155
-148 -42 0 -43 0 0 -170 0 -170 -180 0 -180 0 0 95 0 95 -60 0 -60 0 0 -95 0
-95 -50 0 -50 0 0 170 0 170 -41 0 -41 0 183 179 184 178 35 -30 c19 -17 105
-97 190 -179z"/>
<path d="M682 873 c-48 -40 -24 -110 55 -164 l44 -30 34 21 c48 30 95 87 95
116 0 14 -12 36 -26 51 -20 20 -31 24 -57 19 -40 -8 -54 -8 -92 -1 -22 5 -37
1 -53 -12z"/>
<path d="M2854 1791 c-50 -23 -93 -76 -101 -125 l-6 -36 92 0 91 0 0 90 c0
102 -2 104 -76 71z"/>
<path d="M3217 1800 c-43 -13 -92 -55 -111 -93 -14 -31 -16 -100 -16 -646 l0
-611 90 0 90 0 0 200 c0 110 3 200 6 200 4 0 63 -53 133 -118 301 -280 305
-283 467 -290 61 -3 104 -1 107 5 4 6 -129 133 -294 283 -215 195 -297 275
-290 283 5 7 140 125 299 262 159 138 287 253 285 258 -9 16 -161 7 -224 -13
-80 -26 -89 -32 -308 -218 l-181 -153 0 331 c0 258 -3 330 -12 329 -7 0 -26
-5 -41 -9z"/>
<path d="M4205 1798 c-50 -18 -82 -46 -104 -91 -21 -42 -21 -55 -21 -650 0
-604 0 -607 20 -607 51 0 129 59 149 113 17 44 15 1247 -1 1246 -7 0 -26 -5
-43 -11z"/>
<path d="M1970 1539 c-88 -14 -213 -81 -285 -154 -77 -76 -138 -192 -154 -292
-8 -46 -11 -232 -9 -578 l3 -510 30 3 c42 5 91 38 120 80 25 36 25 39 25 259
0 123 2 223 5 223 2 0 30 -18 61 -40 88 -61 152 -82 274 -88 63 -2 129 0 163
8 189 39 362 205 412 395 20 78 19 226 -1 296 -41 137 -153 279 -271 342 -107
57 -241 77 -373 56z m254 -207 c237 -107 297 -402 120 -592 -159 -170 -433
-151 -566 40 -139 198 -60 460 168 556 51 21 71 24 144 21 60 -2 99 -10 134
-25z"/>
<path d="M2750 990 l0 -540 90 0 90 0 0 540 0 540 -90 0 -90 0 0 -540z"/>
</g>
</svg>
