<?xml version="1.0" standalone="no"?>
<!DOCTYPE svg PUBLIC "-//W3C//DTD SVG 20010904//EN"
 "http://www.w3.org/TR/2001/REC-SVG-20010904/DTD/svg10.dtd">
<svg version="1.0" xmlns="http://www.w3.org/2000/svg"
 width="2000.000000pt" height="1502.000000pt" viewBox="0 0 2000.000000 1502.000000"
 preserveAspectRatio="xMidYMid meet">

<g transform="translate(0.000000,1502.000000) scale(0.100000,-0.100000)"
fill="#000000" stroke="none">
<path d="M9710 13550 c-568 -103 -1029 -494 -1204 -1020 -60 -181 -68 -248
-73 -607 l-5 -323 -319 0 -319 0 0 -1703 0 -1703 48 -23 c347 -169 2148 -1001
2162 -999 9 2 509 232 1109 513 l1091 510 0 1702 0 1703 -322 2 -323 3 -6 335
c-4 262 -9 353 -23 418 -60 288 -199 545 -411 757 -121 121 -237 204 -393 283
-133 68 -230 103 -382 139 -90 21 -134 26 -315 29 -175 3 -227 0 -315 -16z
m490 -802 c206 -51 394 -198 486 -380 56 -111 64 -168 64 -480 l0 -288 -757 2
-758 3 -3 260 c-3 305 6 372 70 505 55 115 185 246 303 307 191 98 392 122
595 71z m1108 -2965 l-3 -1027 -650 -303 c-357 -167 -656 -303 -665 -302 -8 0
-307 137 -665 303 l-650 304 -3 1013 c-1 558 0 1020 3 1027 3 9 277 12 1320
12 l1315 0 -2 -1027z"/>
<path d="M14020 4783 c-463 -47 -834 -236 -1100 -558 -256 -311 -380 -726
-349 -1165 55 -777 584 -1344 1359 -1456 169 -24 451 -15 616 20 484 102 872
394 1078 811 68 138 97 220 129 365 104 469 19 947 -236 1325 -84 124 -265
303 -392 388 -224 148 -471 235 -757 266 -91 10 -269 12 -348 4z m373 -752
c147 -38 291 -130 390 -248 64 -76 141 -236 169 -348 18 -74 22 -118 21 -250
0 -141 -3 -172 -26 -259 -66 -247 -206 -426 -412 -526 -127 -62 -188 -74 -355
-75 -168 0 -231 13 -355 74 -222 110 -367 312 -426 596 -19 88 -15 323 5 420
75 346 315 584 640 634 89 14 259 5 349 -18z"/>
<path d="M1790 4375 l0 -365 425 0 425 0 0 -1185 0 -1185 405 0 405 0 0 1185
0 1185 423 2 422 3 3 363 2 362 -1255 0 -1255 0 0 -365z"/>
<path d="M4660 3190 l0 -1550 400 0 400 0 2 523 3 522 155 3 155 2 286 -522
286 -523 462 -3 c253 -1 461 0 461 2 0 2 -151 259 -335 571 -184 312 -335 569
-335 571 0 2 33 20 73 40 149 75 273 185 361 321 132 205 183 470 141 743 -59
393 -300 676 -675 794 -169 54 -208 56 -1057 56 l-783 0 0 -1550z m1530 804
c124 -59 182 -148 182 -280 0 -135 -69 -236 -195 -287 -49 -21 -72 -22 -384
-25 l-333 -3 0 309 c0 170 3 312 7 316 4 4 154 6 333 4 l325 -3 65 -31z"/>
<path d="M7510 3190 l0 -1550 1125 0 1125 0 0 360 0 360 -725 0 -725 0 0 250
0 250 710 0 710 0 0 355 0 355 -710 0 -710 0 0 230 0 230 725 0 725 0 0 355 0
355 -1125 0 -1125 0 0 -1550z"/>
<path d="M10100 4375 l0 -365 643 -2 644 -3 -643 -870 -643 -870 0 -312 -1
-313 1190 0 1190 0 -2 362 -3 363 -643 5 -643 5 646 877 645 877 0 305 0 306
-1190 0 -1190 0 0 -365z"/>
<path d="M16070 3190 l0 -1550 400 0 400 0 0 525 0 525 154 0 c111 0 156 -3
164 -12 5 -7 132 -238 282 -513 150 -275 278 -506 285 -513 8 -9 110 -12 468
-10 l457 3 -331 560 c-182 308 -333 565 -336 572 -3 7 27 28 74 52 355 178
548 557 505 989 -43 433 -286 741 -682 866 -169 54 -208 56 -1057 56 l-783 0
0 -1550z m1445 829 c106 -19 194 -80 238 -164 24 -48 34 -171 18 -231 -16 -61
-66 -129 -119 -163 -86 -55 -133 -61 -474 -61 l-308 0 0 315 0 315 293 0 c169
0 318 -5 352 -11z"/>
</g>
</svg>
