<?xml version="1.0" encoding="UTF-8"?>
<!DOCTYPE svg PUBLIC "-//W3C//DTD SVG 1.1//EN" "http://www.w3.org/Graphics/SVG/1.1/DTD/svg11.dtd">
<svg xmlns="http://www.w3.org/2000/svg" version="1.1" width="1308px" height="778px" style="shape-rendering:geometricPrecision; text-rendering:geometricPrecision; image-rendering:optimizeQuality; fill-rule:evenodd; clip-rule:evenodd" xmlns:xlink="http://www.w3.org/1999/xlink">
<g><path style="opacity:0.875" fill="#000000" d="M 292.5,-0.5 C 298.5,-0.5 304.5,-0.5 310.5,-0.5C 325.955,4.11738 336.455,14.1174 342,29.5C 343.474,73.7942 343.974,118.128 343.5,162.5C 338.167,162.5 332.833,162.5 327.5,162.5C 327.5,147.833 327.5,133.167 327.5,118.5C 309.833,118.5 292.167,118.5 274.5,118.5C 274.5,133.167 274.5,147.833 274.5,162.5C 269.167,162.5 263.833,162.5 258.5,162.5C 258.5,147.833 258.5,133.167 258.5,118.5C 252.833,118.5 247.167,118.5 241.5,118.5C 243.482,113.037 246.149,107.871 249.5,103C 252.482,102.502 255.482,102.335 258.5,102.5C 258.039,77.7815 258.539,53.1148 260,28.5C 265.96,13.3738 276.793,3.70714 292.5,-0.5 Z M 294.5,15.5 C 309.598,13.6279 320.098,19.6279 326,33.5C 327.458,56.4474 327.958,79.4474 327.5,102.5C 309.833,102.5 292.167,102.5 274.5,102.5C 274.333,80.1642 274.5,57.8308 275,35.5C 278.351,25.6498 284.851,18.9831 294.5,15.5 Z"/></g>
<g><path style="opacity:0.868" fill="#000000" d="M 381.5,-0.5 C 382.167,-0.5 382.833,-0.5 383.5,-0.5C 403.772,35.6114 424.272,71.6114 445,107.5C 445.5,72.5016 445.667,37.5016 445.5,2.5C 450.833,2.5 456.167,2.5 461.5,2.5C 461.833,56.8374 461.5,111.171 460.5,165.5C 458.448,164.266 456.781,162.6 455.5,160.5C 436.028,126.231 416.528,91.8974 397,57.5C 396.5,92.4984 396.333,127.498 396.5,162.5C 391.238,162.805 386.072,162.471 381,161.5C 380.171,107.429 380.338,53.4294 381.5,-0.5 Z"/></g>
<g><path style="opacity:0.855" fill="#000000" d="M 566.5,-0.5 C 575.167,-0.5 583.833,-0.5 592.5,-0.5C 613.866,3.26704 631.366,13.6004 645,30.5C 646.496,32.4503 646.663,34.4503 645.5,36.5C 642.17,40.0438 638.17,41.8771 633.5,42C 614.021,18.3968 589.355,10.3968 559.5,18C 533.057,27.3672 517.224,45.8672 512,73.5C 510.312,110.975 527.146,135.808 562.5,148C 599.975,154.097 626.641,139.93 642.5,105.5C 620.844,104.5 599.177,104.167 577.5,104.5C 579.912,99.3413 582.579,94.3413 585.5,89.5C 610.833,89.5 636.167,89.5 661.5,89.5C 658.907,121.523 643.24,144.69 614.5,159C 582.195,171.121 552.195,167.121 524.5,147C 495.243,118.393 488.077,84.8933 503,46.5C 516.638,20.7001 537.804,5.03346 566.5,-0.5 Z"/></g>
<g><path style="opacity:0.874" fill="#000000" d="M 864.5,-0.5 C 870.5,-0.5 876.5,-0.5 882.5,-0.5C 899.412,3.91138 910.245,14.578 915,31.5C 915.5,75.1654 915.667,118.832 915.5,162.5C 910.5,162.5 905.5,162.5 900.5,162.5C 900.5,147.833 900.5,133.167 900.5,118.5C 882.5,118.5 864.5,118.5 846.5,118.5C 846.5,133.167 846.5,147.833 846.5,162.5C 841.167,162.5 835.833,162.5 830.5,162.5C 830.5,147.833 830.5,133.167 830.5,118.5C 825.489,118.666 820.489,118.499 815.5,118C 814.978,117.439 814.645,116.772 814.5,116C 816.739,111.787 819.072,107.621 821.5,103.5C 824.428,102.516 827.428,102.183 830.5,102.5C 830.073,78.7988 830.573,55.1322 832,31.5C 837.401,15.2653 848.234,4.59865 864.5,-0.5 Z M 866.5,15.5 C 882.167,13.7449 893,20.0783 899,34.5C 900.447,57.1221 900.947,79.7888 900.5,102.5C 882.5,102.5 864.5,102.5 846.5,102.5C 846.333,81.1641 846.5,59.8307 847,38.5C 849.758,27.5819 856.258,19.9153 866.5,15.5 Z"/></g>
<g><path style="opacity:0.847" fill="#000000" d="M 99.5,2.5 C 104.762,2.19532 109.928,2.52865 115,3.5C 128.56,42.2826 142.394,80.9493 156.5,119.5C 171.088,81.072 185.088,42.4053 198.5,3.5C 204.128,2.50457 209.794,2.17124 215.5,2.5C 196.974,56.2445 178.14,109.911 159,163.5C 157.951,165.107 156.451,165.773 154.5,165.5C 136.504,113.013 118.004,60.6795 99,8.5C 98.3224,6.40239 98.4891,4.40239 99.5,2.5 Z"/></g>
<g><path style="opacity:0.87" fill="#000000" d="M 695.5,2.5 C 700.833,2.5 706.167,2.5 711.5,2.5C 711.333,43.168 711.5,83.8347 712,124.5C 716.941,141.451 728.108,148.618 745.5,146C 754.759,142.409 760.925,135.909 764,126.5C 764.5,85.168 764.667,43.8347 764.5,2.5C 769.833,2.5 775.167,2.5 780.5,2.5C 780.979,46.2139 780.479,89.8806 779,133.5C 772.062,152.381 758.562,162.048 738.5,162.5C 724.01,162.338 712.177,156.671 703,145.5C 700.196,141.557 698.196,137.223 697,132.5C 695.527,89.2059 695.027,45.8726 695.5,2.5 Z"/></g>
<g><path style="opacity:0.868" fill="#000000" d="M 958.5,2.5 C 974.837,2.3334 991.17,2.50007 1007.5,3C 1043.2,11.856 1059.03,34.6893 1055,71.5C 1049.77,93.8973 1036.27,108.897 1014.5,116.5C 1026.48,130.98 1038.65,145.313 1051,159.5C 1051.48,160.448 1051.65,161.448 1051.5,162.5C 1044.83,162.666 1038.16,162.5 1031.5,162C 1019.83,148.333 1008.17,134.667 996.5,121C 992.835,118.833 988.835,118 984.5,118.5C 984.5,133.167 984.5,147.833 984.5,162.5C 979.167,162.5 973.833,162.5 968.5,162.5C 968.5,114.5 968.5,66.5 968.5,18.5C 962.242,18.8097 956.076,18.4764 950,17.5C 949.333,16.5 949.333,15.5 950,14.5C 952.805,10.3714 955.638,6.37136 958.5,2.5 Z M 984.5,18.5 C 1002.79,15.3101 1018.29,20.3101 1031,33.5C 1044.59,55.0168 1042.43,74.8501 1024.5,93C 1012.46,101.18 999.129,104.346 984.5,102.5C 984.5,74.5 984.5,46.5 984.5,18.5 Z"/></g>
<g><path style="opacity:0.866" fill="#000000" d="M 1094.5,2.5 C 1110.88,2.09391 1127.21,2.59391 1143.5,4C 1183.55,15.0843 1204.55,41.4177 1206.5,83C 1204.4,123.418 1184.06,149.418 1145.5,161C 1132.21,162.381 1118.88,162.881 1105.5,162.5C 1105.5,114.5 1105.5,66.5 1105.5,18.5C 1099.17,18.5 1092.83,18.5 1086.5,18.5C 1087.59,12.3215 1090.26,6.98813 1094.5,2.5 Z M 1120.5,18.5 C 1162.6,19.2694 1185.94,40.6027 1190.5,82.5C 1189.26,103.145 1180.93,120.312 1165.5,134C 1152.08,143.606 1137.08,148.106 1120.5,147.5C 1120.5,104.5 1120.5,61.5 1120.5,18.5 Z"/></g>
<g><path style="opacity:0.9" fill="#000000" d="M 641.5,211.5 C 709.643,209.089 765.643,233.589 809.5,285C 974.833,285.5 1140.17,285.667 1305.5,285.5C 1307.85,314.623 1299.18,339.79 1279.5,361C 1265.46,373.182 1249.13,380.182 1230.5,382C 1219.84,382.5 1209.17,382.667 1198.5,382.5C 1194.63,423.196 1172.97,448.696 1133.5,459C 1118.23,460.873 1102.9,462.04 1087.5,462.5C 1080.53,508.636 1053.86,534.136 1007.5,539C 941.5,539.333 875.5,539.667 809.5,540C 765.391,591.871 709.058,616.204 640.5,613C 582.867,608.186 535.534,583.853 498.5,540C 432.833,539.667 367.167,539.333 301.5,539C 262.636,535.849 236.803,516.016 224,479.5C 222.51,473.551 221.344,467.551 220.5,461.5C 200.388,463.053 180.722,460.886 161.5,455C 129.678,441.443 112.345,417.277 109.5,382.5C 87.6035,384.961 66.6035,381.794 46.5,373C 21.6508,359.147 7.15081,337.98 3,309.5C 1.90239,301.536 1.40239,293.536 1.5,285.5C 166.834,285.667 332.167,285.5 497.5,285C 535.546,241.143 583.546,216.643 641.5,211.5 Z M 641.5,231.5 C 716.47,229.8 773.137,260.634 811.5,324C 842.322,383.221 842.155,442.388 811,501.5C 767.991,570.584 705.824,600.417 624.5,591C 562.144,578.295 516.978,543.462 489,486.5C 460.644,416.326 470.311,351.993 518,293.5C 551.333,257.25 592.5,236.583 641.5,231.5 Z M 22.5,304.5 C 176.167,304.333 329.834,304.5 483.5,305C 472.249,323.088 463.916,342.421 458.5,363C 336.167,363.667 213.833,363.667 91.5,363C 52.7111,362.04 29.7111,342.54 22.5,304.5 Z M 824.5,304.5 C 978.167,304.333 1131.83,304.5 1285.5,305C 1279.7,337.801 1260.37,356.801 1227.5,362C 1101.18,363.48 974.851,363.98 848.5,363.5C 843.527,342.561 835.527,322.894 824.5,304.5 Z M 129.5,383.5 C 237.833,383.5 346.167,383.5 454.5,383.5C 453.896,392.999 453.229,402.499 452.5,412C 453.226,421.835 453.892,431.668 454.5,441.5C 364.14,441.982 273.807,441.482 183.5,440C 152.388,433.721 134.388,414.888 129.5,383.5 Z M 852.5,384.5 C 961.001,383.168 1069.67,383.168 1178.5,384.5C 1172.08,418.374 1151.74,437.208 1117.5,441C 1029.17,441.667 940.833,441.667 852.5,441C 853.999,431.616 854.666,422.116 854.5,412.5C 854.677,402.952 854.01,393.618 852.5,384.5 Z M 240.5,462.5 C 313.331,461.501 386.331,461.167 459.5,461.5C 464.125,481.746 471.791,500.746 482.5,518.5C 422.503,519.667 362.503,519.833 302.5,519C 268.263,514.925 247.596,496.092 240.5,462.5 Z M 848.5,461.5 C 921.167,461.5 993.833,461.5 1066.5,461.5C 1060.6,495.897 1040.27,515.063 1005.5,519C 945.167,519.667 884.833,519.667 824.5,519C 835.939,501.286 843.939,482.119 848.5,461.5 Z"/></g>
<g><path style="opacity:0.969" fill="#000000" d="M 637.5,257.5 C 679.48,253.906 717.147,264.74 750.5,290C 752.594,291.255 753.594,293.088 753.5,295.5C 721.557,370.046 688.557,444.046 654.5,517.5C 652.132,516.631 650.632,514.965 650,512.5C 618.022,440.046 586.189,367.546 554.5,295C 556.795,291.372 559.795,288.372 563.5,286C 585.915,270.476 610.582,260.976 637.5,257.5 Z"/></g>
<g><path style="opacity:0.957" fill="#000000" d="M 529.5,317.5 C 532.48,317.241 534.313,318.574 535,321.5C 570,399.5 605,477.5 640,555.5C 642.056,559.268 643.222,563.268 643.5,567.5C 584.992,561.367 541.825,532.701 514,481.5C 489.031,423.75 494.198,369.083 529.5,317.5 Z"/></g>
<g><path style="opacity:0.954" fill="#000000" d="M 775.5,317.5 C 777.017,317.511 778.184,318.177 779,319.5C 808.36,361.662 816.36,407.662 803,457.5C 784.191,513.31 746.358,548.81 689.5,564C 680.939,565.987 672.272,567.153 663.5,567.5C 663.439,563.951 664.273,560.618 666,557.5C 702.257,477.324 738.757,397.324 775.5,317.5 Z"/></g>
<g><path style="opacity:0.816" fill="#000000" d="M 381.5,673.5 C 395.866,672.259 405.699,678.259 411,691.5C 411.5,718.831 411.667,746.165 411.5,773.5C 408.223,773.784 405.057,773.451 402,772.5C 401.5,763.84 401.334,755.173 401.5,746.5C 391.167,746.5 380.833,746.5 370.5,746.5C 370.5,755.5 370.5,764.5 370.5,773.5C 366.894,773.789 363.394,773.456 360,772.5C 359.5,763.84 359.334,755.173 359.5,746.5C 356.167,746.5 352.833,746.5 349.5,746.5C 350.126,740.213 353.459,736.547 359.5,735.5C 359.084,720.45 359.584,705.45 361,690.5C 365.263,681.633 372.096,675.966 381.5,673.5 Z M 382.5,684.5 C 390.537,684.098 396.37,687.432 400,694.5C 401.427,708.107 401.927,721.774 401.5,735.5C 391.167,735.5 380.833,735.5 370.5,735.5C 370.333,722.496 370.5,709.496 371,696.5C 373.019,690.65 376.852,686.65 382.5,684.5 Z"/></g>
<g><path style="opacity:0.817" fill="#000000" d="M 537.5,675.5 C 540.833,675.5 544.167,675.5 547.5,675.5C 547.833,708.173 547.5,740.84 546.5,773.5C 543.812,770.978 540.979,768.644 538,766.5C 532.153,772.591 524.986,775.258 516.5,774.5C 493.523,772.296 483.023,759.629 485,736.5C 492.723,715.138 507.557,707.638 529.5,714C 531.664,714.914 533.664,716.081 535.5,717.5C 536.183,703.437 536.85,689.437 537.5,675.5 Z M 512.5,722.5 C 529.955,722.456 537.789,731.123 536,748.5C 530.114,763.019 519.948,767.186 505.5,761C 491.892,748.514 492.225,736.514 506.5,725C 508.611,724.155 510.611,723.322 512.5,722.5 Z"/></g>
<g><path style="opacity:0.821" fill="#000000" d="M 718.5,675.5 C 721.833,675.5 725.167,675.5 728.5,675.5C 728.5,704.5 728.5,733.5 728.5,762.5C 737.167,762.5 745.833,762.5 754.5,762.5C 754.5,766.167 754.5,769.833 754.5,773.5C 742.167,773.5 729.833,773.5 717.5,773.5C 717.174,740.76 717.508,708.093 718.5,675.5 Z"/></g>
<g><path style="opacity:0.804" fill="#000000" d="M 843.5,675.5 C 848.833,675.5 854.167,675.5 859.5,675.5C 859.333,690.17 859.5,704.837 860,719.5C 877.091,707.576 892.758,709.243 907,724.5C 914.815,738.322 914.148,751.656 905,764.5C 896.325,773.501 885.825,776.668 873.5,774C 868.112,772.806 863.445,770.306 859.5,766.5C 857.016,768.483 854.683,770.65 852.5,773C 851.552,773.483 850.552,773.649 849.5,773.5C 849.5,744.5 849.5,715.5 849.5,686.5C 846.167,686.5 842.833,686.5 839.5,686.5C 840.477,682.702 841.81,679.036 843.5,675.5 Z M 876.5,722.5 C 890.852,721.824 899.186,728.49 901.5,742.5C 899.155,758.366 890.155,765.199 874.5,763C 860.208,755.946 856.708,745.446 864,731.5C 867.299,727.118 871.466,724.118 876.5,722.5 Z"/></g>
<g><path style="opacity:0.693" fill="#000000" d="M 560.5,691.5 C 564.167,691.5 567.833,691.5 571.5,691.5C 571.5,695.167 571.5,698.833 571.5,702.5C 567.833,702.5 564.167,702.5 560.5,702.5C 560.5,698.833 560.5,695.167 560.5,691.5 Z"/></g>
<g><path style="opacity:0.797" fill="#000000" d="M 609.5,711.5 C 635.998,711.831 647.831,725.164 645,751.5C 638.693,769.91 625.86,777.41 606.5,774C 585.31,765.804 578.31,750.804 585.5,729C 591.188,719.787 599.188,713.954 609.5,711.5 Z M 610.5,722.5 C 624.959,721.788 633.293,728.621 635.5,743C 634.446,748.168 632.612,753.001 630,757.5C 618.152,767.005 607.152,766.005 597,754.5C 590.52,739.091 595.02,728.424 610.5,722.5 Z"/></g>
<g><path style="opacity:0.805" fill="#000000" d="M 792.5,711.5 C 802.502,710.593 811.335,713.259 819,719.5C 821.449,718.056 823.615,716.222 825.5,714C 826.448,713.517 827.448,713.351 828.5,713.5C 828.833,733.511 828.5,753.511 827.5,773.5C 824.812,770.978 821.979,768.644 819,766.5C 810.554,774.035 800.721,776.535 789.5,774C 766.28,764.71 759.78,748.544 770,725.5C 775.895,718.158 783.395,713.491 792.5,711.5 Z M 792.5,722.5 C 810.467,721.966 818.633,730.633 817,748.5C 808.905,764.73 797.405,767.896 782.5,758C 772.324,742.361 775.657,730.528 792.5,722.5 Z"/></g>
<g><path style="opacity:0.784" fill="#000000" d="M 933.5,712.5 C 940.528,711.351 946.695,713.018 952,717.5C 953.814,719.715 954.314,722.048 953.5,724.5C 949.466,728.389 945.799,728.222 942.5,724C 937.542,722.31 934.542,723.977 933.5,729C 933.439,730.711 934.106,732.044 935.5,733C 940.102,734.867 944.768,736.534 949.5,738C 957.155,744.454 959.655,752.62 957,762.5C 949.928,774.633 940.095,777.466 927.5,771C 919.015,765.299 919.682,761.132 929.5,758.5C 937.416,766.022 943.416,764.688 947.5,754.5C 946.647,751.41 944.98,748.91 942.5,747C 936.922,745.642 931.589,743.808 926.5,741.5C 926.046,738.86 924.879,736.527 923,734.5C 922.09,729.342 922.59,724.342 924.5,719.5C 927.257,716.73 930.257,714.396 933.5,712.5 Z"/></g>
<g><path style="opacity:0.807" fill="#000000" d="M 425.5,713.5 C 428.833,713.5 432.167,713.5 435.5,713.5C 435.071,727.559 435.571,741.559 437,755.5C 441.627,763.228 448.127,765.395 456.5,762C 458.829,759.784 460.662,757.284 462,754.5C 462.5,740.837 462.667,727.171 462.5,713.5C 466.167,713.5 469.833,713.5 473.5,713.5C 473.833,733.511 473.5,753.511 472.5,773.5C 470.063,772.197 467.896,770.53 466,768.5C 461.583,772.862 456.25,774.862 450,774.5C 438.495,774.415 430.495,769.081 426,758.5C 425.5,743.504 425.333,728.504 425.5,713.5 Z"/></g>
<g><path style="opacity:0.808" fill="#000000" d="M 560.5,713.5 C 564.167,713.5 567.833,713.5 571.5,713.5C 571.5,733.5 571.5,753.5 571.5,773.5C 567.894,773.789 564.394,773.456 561,772.5C 560.5,752.836 560.333,733.169 560.5,713.5 Z"/></g>
</svg>
