<?xml version="1.0" standalone="no"?>
<!DOCTYPE svg PUBLIC "-//W3C//DTD SVG 20010904//EN"
 "http://www.w3.org/TR/2001/REC-SVG-20010904/DTD/svg10.dtd">
<svg version="1.0" xmlns="http://www.w3.org/2000/svg"
 width="1661.000000pt" height="818.000000pt" viewBox="0 0 1661.000000 818.000000"
 preserveAspectRatio="xMidYMid meet">
<metadata>
Created by potrace 1.16, written by Peter Selinger 2001-2019
</metadata>
<g transform="translate(0.000000,818.000000) scale(0.100000,-0.100000)"
fill="#000000" stroke="none">
<path d="M2950 7799 c-671 -81 -1294 -420 -1737 -944 -174 -206 -361 -518
-461 -770 -117 -293 -172 -596 -172 -940 0 -443 88 -802 291 -1195 217 -420
555 -787 961 -1046 149 -95 422 -226 578 -278 571 -188 1185 -179 1744 26 238
87 561 272 776 444 119 96 322 300 416 419 295 374 480 794 551 1255 25 163
25 587 0 750 -120 773 -576 1461 -1250 1886 -216 137 -507 264 -745 325 -226
58 -333 71 -617 74 -143 2 -294 -1 -335 -6z m595 -163 c187 -43 339 -112 482
-220 498 -375 753 -1074 779 -2136 18 -726 -88 -1350 -306 -1795 -98 -201
-173 -309 -315 -451 -197 -198 -368 -296 -625 -355 -126 -30 -389 -37 -540
-15 -876 128 -1358 1074 -1327 2606 20 943 231 1622 628 2021 190 191 415 309
673 354 110 19 453 14 551 -9z"/>
<path d="M11783 6060 c-64 -13 -180 -62 -267 -114 -170 -101 -321 -237 -551
-500 l-140 -160 -3 342 -2 342 -450 0 -450 0 0 -1685 0 -1685 457 0 456 0 -7
1255 -7 1255 63 66 c72 75 175 147 243 171 141 47 479 -64 675 -222 65 -52 87
-65 115 -65 l35 0 0 505 0 505 -62 -1 c-35 -1 -82 -5 -105 -9z"/>
<path d="M13465 6060 c-369 -55 -675 -210 -938 -476 -270 -275 -451 -643 -513
-1049 -23 -152 -23 -470 0 -620 116 -746 595 -1267 1285 -1397 153 -29 485
-31 628 -5 202 38 372 101 510 190 258 166 470 426 586 722 51 129 53 141 27
155 -19 10 -29 4 -99 -63 -163 -156 -354 -258 -564 -303 -304 -65 -690 -17
-917 114 -177 102 -308 249 -405 454 -59 125 -62 141 -33 155 13 6 464 212
1003 458 539 245 984 451 990 456 15 15 -11 158 -49 273 -70 210 -219 460
-343 577 -161 152 -425 286 -668 340 -103 23 -399 34 -500 19z m267 -151 c172
-36 295 -158 357 -353 53 -166 77 -354 87 -691 l7 -220 -604 -287 c-415 -197
-606 -283 -611 -275 -15 28 -49 239 -59 375 -35 456 60 926 242 1193 141 209
358 305 581 258z"/>
<path d="M15170 6040 l0 -30 70 0 70 0 0 -185 0 -185 35 0 35 0 0 185 0 185
75 0 75 0 0 30 0 30 -180 0 -180 0 0 -30z"/>
<path d="M15580 5855 l0 -215 35 0 34 0 3 137 3 137 65 -109 c44 -73 72 -111
85 -113 16 -2 35 22 90 115 l70 118 3 -143 3 -142 34 0 35 0 0 215 0 215 -32
0 c-32 -1 -36 -6 -113 -140 -44 -77 -83 -140 -86 -140 -3 0 -43 63 -88 140
-76 129 -85 140 -112 140 l-29 0 0 -215z"/>
<path d="M6370 4743 c0 -1227 2 -1319 36 -1481 46 -221 164 -448 294 -566 161
-145 383 -215 645 -202 145 7 259 33 371 85 263 123 452 308 647 633 l67 112
0 -362 0 -362 430 0 430 0 0 1685 0 1685 -445 0 -445 0 0 -1249 0 -1248 -51
-79 c-163 -251 -403 -362 -671 -310 -93 18 -150 43 -214 94 -107 85 -175 235
-194 427 -6 69 -10 534 -10 1238 l0 1127 -445 0 -445 0 0 -1227z"/>
<path d="M5685 3033 c-191 -17 -416 -64 -590 -124 -571 -196 -1051 -571 -1391
-1086 -269 -407 -412 -842 -440 -1343 l-7 -120 80 0 80 0 6 109 c19 325 130
578 357 815 311 324 788 522 1460 605 181 23 443 41 588 41 l92 0 0 555 0 555
-97 -2 c-54 -1 -116 -3 -138 -5z"/>
</g>
</svg>
